<svg xmlns="http://www.w3.org/2000/svg" width="28" height="16" viewBox="0 0 28 16" fill="none" class="mdl-js">
<path d="M25.9259 0H2.07407C0.928595 0 0 0.842758 0 1.88235V14.1176C0 15.1572 0.928595 16 2.07407 16H25.9259C27.0714 16 28 15.1572 28 14.1176V1.88235C28 0.842758 27.0714 0 25.9259 0Z" fill="url(#paint0_linear_959_20033)"/>
<path d="M3.246 13.0669V3.19689H4.212L8.216 10.7149H7.796L11.772 3.19689H12.738V13.0669H11.674V4.73689H12.01L8.384 11.5409H7.628L3.96 4.72289H4.296V13.0669H3.246ZM17.8686 13.1929C17.2059 13.1929 16.6319 13.0482 16.1466 12.7589C15.6612 12.4696 15.2832 12.0636 15.0126 11.5409C14.7512 11.0089 14.6206 10.3836 14.6206 9.66489C14.6206 8.94623 14.7512 8.32556 15.0126 7.80289C15.2832 7.27089 15.6612 6.86023 16.1466 6.57089C16.6319 6.28156 17.2059 6.13689 17.8686 6.13689C18.5312 6.13689 19.1052 6.28156 19.5906 6.57089C20.0759 6.86023 20.4492 7.27089 20.7106 7.80289C20.9812 8.32556 21.1166 8.94623 21.1166 9.66489C21.1166 10.3836 20.9812 11.0089 20.7106 11.5409C20.4492 12.0636 20.0759 12.4696 19.5906 12.7589C19.1052 13.0482 18.5312 13.1929 17.8686 13.1929ZM17.8686 12.2829C18.5126 12.2829 19.0212 12.0589 19.3946 11.6109C19.7772 11.1536 19.9686 10.5002 19.9686 9.65089C19.9686 8.81089 19.7772 8.16689 19.3946 7.71889C19.0212 7.27089 18.5126 7.04689 17.8686 7.04689C17.2339 7.04689 16.7252 7.27089 16.3426 7.71889C15.9599 8.16689 15.7686 8.81089 15.7686 9.65089C15.7686 10.5002 15.9599 11.1536 16.3426 11.6109C16.7252 12.0589 17.2339 12.2829 17.8686 12.2829ZM19.1846 6.96289L18.5966 6.57089V6.26289C18.9886 6.25356 19.2966 6.19289 19.5206 6.08089C19.7446 5.96889 19.9032 5.79623 19.9966 5.56289C20.0899 5.32956 20.1366 5.03089 20.1366 4.66689V4.44289H21.1446V4.83489C21.1446 5.25489 21.0652 5.61889 20.9066 5.92689C20.7572 6.23489 20.5332 6.47756 20.2346 6.65489C19.9452 6.83223 19.5952 6.93489 19.1846 6.96289ZM17.4486 5.35289L18.8906 2.52489H20.1086L18.2606 5.35289H17.4486ZM22.6799 4.56889V3.29489H24.0799V4.56889H22.6799ZM22.8199 13.0669V6.26289H23.9539V13.0669H22.8199Z" fill="white"/>
<defs>
<linearGradient id="paint0_linear_959_20033" x1="1.148" y1="2.288" x2="7.17321" y2="24.1098" gradientUnits="userSpaceOnUse">
<stop stop-color="#FF6B2A"/>
<stop offset="1" stop-color="#D6262A"/>
</linearGradient>
</defs>
</svg>