<svg xmlns="http://www.w3.org/2000/svg" width="19" height="25" viewBox="0 0 19 25" fill="none">
<path d="M4.59985 20.2515H14.8C15.1591 20.2515 15.4846 20.0974 15.7913 19.7027C16.1013 19.3035 16.2619 18.8275 16.262 18.2505V6.1275H17.8313V5.55817H13.8176L13.6897 5.25153L12.8313 3.20367L12.8293 3.19879C12.7506 3.00466 12.6029 2.82064 12.3528 2.65387C12.1018 2.48661 11.8735 2.41949 11.6614 2.41949H7.73853C7.52635 2.41949 7.29813 2.48656 7.04712 2.65387C6.79697 2.82064 6.65023 3.00466 6.57153 3.19879L6.5686 3.20367L5.71021 5.25153L5.58228 5.55817H1.5686V6.1275H3.13794V18.2994C3.13794 18.8767 3.29859 19.3414 3.60376 19.7213C3.86968 20.0522 4.15248 20.2104 4.46411 20.2447L4.59985 20.2515ZM6.49243 4.86481L7.09302 3.43024L7.11938 3.36871L7.15942 3.31696C7.28101 3.16064 7.45182 3.04129 7.66528 2.9986L7.71313 2.98883H11.6985L11.7473 2.9986C11.9608 3.04129 12.1306 3.16064 12.2522 3.31696L12.2942 3.37067L12.3206 3.43414L12.9094 4.86871L13.1917 5.55817H6.20239L6.49243 4.86481ZM4.59985 19.6822C4.48224 19.6822 4.39302 19.6424 4.34888 19.6197C4.29984 19.5944 4.26102 19.5659 4.23462 19.5445C4.18185 19.5018 4.13446 19.4524 4.09595 19.4088C3.97553 19.2723 3.89054 19.0954 3.82544 18.9234C3.74469 18.7098 3.70729 18.4838 3.70728 18.2505V6.1275H15.6926V18.2505C15.6926 18.4839 15.6552 18.7098 15.5745 18.9234C15.5094 19.0955 15.4244 19.2723 15.304 19.4088C15.2654 19.4524 15.218 19.5018 15.1653 19.5445C15.1389 19.5659 15.1001 19.5944 15.051 19.6197C15.0069 19.6424 14.9177 19.6822 14.8 19.6822H4.59985ZM13.1233 16.3277V9.48102H12.554V16.3277H13.1233ZM9.98462 16.3277V9.48102H9.41528V16.3277H9.98462ZM6.84595 16.3277V9.48102H6.27661V16.3277H6.84595Z" fill="#646464" stroke="#C92127"/>
</svg>