<svg xmlns="http://www.w3.org/2000/svg" width="19" height="25" viewBox="0 0 19 25" fill="none">
<path d="M1.0686 6.37503V5.59036C1.0686 5.47593 1.10539 5.38193 1.17895 5.30837C1.25251 5.2348 1.34651 5.19802 1.46094 5.19802H5.24945L6.10768 3.15051C6.23029 2.84809 6.45098 2.59062 6.76975 2.3781C7.08853 2.16558 7.41139 2.05933 7.73834 2.05933H11.6617C11.9887 2.05933 12.3115 2.16558 12.6303 2.3781C12.9491 2.59062 13.1698 2.84809 13.2924 3.15051L14.1506 5.19802H17.9391C18.0535 5.19802 18.1475 5.2348 18.2211 5.30837C18.2947 5.38193 18.3314 5.47593 18.3314 5.59036V6.37503C18.3314 6.48947 18.2947 6.58346 18.2211 6.65703C18.1475 6.73059 18.0535 6.76737 17.9391 6.76737H16.7621V18.3904C16.7621 19.0688 16.57 19.6552 16.1858 20.1497C15.8017 20.6443 15.3399 20.8915 14.8004 20.8915H4.59964C4.06017 20.8915 3.59836 20.6524 3.2142 20.1743C2.83003 19.6961 2.63795 19.1178 2.63795 18.4394V6.76737H1.46094C1.34651 6.76737 1.25251 6.73059 1.17895 6.65703C1.10539 6.58346 1.0686 6.48947 1.0686 6.37503ZM4.2073 18.3904C4.2073 18.5702 4.23591 18.7357 4.29312 18.8869C4.35034 19.0381 4.4096 19.1485 4.4709 19.2179C4.53221 19.2874 4.57512 19.3222 4.59964 19.3222H14.8004C14.8249 19.3222 14.8678 19.2874 14.9291 19.2179C14.9904 19.1485 15.0497 19.0381 15.1069 18.8869C15.1641 18.7357 15.1927 18.5702 15.1927 18.3904V6.76737H4.2073V18.3904ZM5.77665 16.5758V9.51373C5.77665 9.3993 5.81343 9.3053 5.88699 9.23174C5.96056 9.15818 6.05456 9.12139 6.16899 9.12139H6.95366C7.06809 9.12139 7.16209 9.15818 7.23565 9.23174C7.30922 9.3053 7.346 9.3993 7.346 9.51373V16.5758C7.346 16.6902 7.30922 16.7842 7.23565 16.8578C7.16209 16.9314 7.06809 16.9681 6.95366 16.9681H6.16899C6.05456 16.9681 5.96056 16.9314 5.88699 16.8578C5.81343 16.7842 5.77665 16.6902 5.77665 16.5758ZM6.95366 5.19802H12.4464L11.8579 3.76354C11.8007 3.68998 11.7312 3.64502 11.6494 3.62867H7.76286C7.68112 3.64502 7.61164 3.68998 7.55443 3.76354L6.95366 5.19802ZM8.91535 16.5758V9.51373C8.91535 9.3993 8.95213 9.3053 9.02569 9.23174C9.09926 9.15818 9.19325 9.12139 9.30768 9.12139H10.0924C10.2068 9.12139 10.3008 9.15818 10.3744 9.23174C10.4479 9.3053 10.4847 9.3993 10.4847 9.51373V16.5758C10.4847 16.6902 10.4479 16.7842 10.3744 16.8578C10.3008 16.9314 10.2068 16.9681 10.0924 16.9681H9.30768C9.19325 16.9681 9.09926 16.9314 9.02569 16.8578C8.95213 16.7842 8.91535 16.6902 8.91535 16.5758ZM12.054 16.5758V9.51373C12.054 9.3993 12.0908 9.3053 12.1644 9.23174C12.238 9.15818 12.332 9.12139 12.4464 9.12139H13.2311C13.3455 9.12139 13.4395 9.15818 13.513 9.23174C13.5866 9.3053 13.6234 9.3993 13.6234 9.51373V16.5758C13.6234 16.6902 13.5866 16.7842 13.513 16.8578C13.4395 16.9314 13.3455 16.9681 13.2311 16.9681H12.4464C12.332 16.9681 12.238 16.9314 12.1644 16.8578C12.0908 16.7842 12.054 16.6902 12.054 16.5758Z" fill="#646464"/>
</svg>