<svg xmlns="http://www.w3.org/2000/svg" width="28.001" height="24.008" viewBox="0 0 28.001 24.008" class="mdl-js">
  <g id="ico-like" transform="translate(0.017 -20.4)">
    <path id="Path_759" data-name="Path 759" d="M133.21,184.27h2.257v8.138l-2.257.025Z" transform="translate(-125.947 -154.441)" fill="#fff"/>
    <path id="Path_760" data-name="Path 760" d="M213.52,101.927a1.09,1.09,0,0,1,.269.865l-.588,4.836a.9.9,0,0,1-.9.794h-4.979a2.42,2.42,0,0,1-1.239-.342,4.109,4.109,0,0,0-2.1-.579h-.6v-5.989l.248-.013a3.221,3.221,0,0,0,2.531-1.469l2.938-4.56.022.006a1,1,0,0,1,.76.982,6.555,6.555,0,0,1-.66,2.8,1.6,1.6,0,0,0,1.438,2.3H212.7A1.09,1.09,0,0,1,213.52,101.927Z" transform="translate(-192.441 -70.694)" fill="#fff"/>
    <path id="Path_761" data-name="Path 761" d="M27.164,20.4H7.508A7.684,7.684,0,0,0,0,28.232l-.017,14.95a1.258,1.258,0,0,0,1.4,1.218H20.476a7.683,7.683,0,0,0,7.507-7.832V21.255a.838.838,0,0,0-.819-.855Zm-4.3,11.916L22.3,37.224a2.56,2.56,0,0,1-2.5,2.31H14.954a3.873,3.873,0,0,1-2.045-.588A2.279,2.279,0,0,0,11.7,38.6h-.588v.247a.839.839,0,0,1-.811.855l-3.835.045h0a.8.8,0,0,1-.577-.247.874.874,0,0,1-.243-.608v-10a.838.838,0,0,1,.82-.855H10.3a.838.838,0,0,1,.82.855V29.1l.155-.009a1.479,1.479,0,0,0,1.17-.708l2.866-4.644a1.584,1.584,0,0,1,1.749-.722l.038.01A2.7,2.7,0,0,1,19.075,25.7a8.687,8.687,0,0,1-.75,3.446h1.851a2.665,2.665,0,0,1,2.03.953,2.911,2.911,0,0,1,.663,2.217Z" fill="#fff"/>
  </g>
</svg>