<svg xmlns="http://www.w3.org/2000/svg" viewBox="0 0 104.554 125.395" class="svg-content-icon">
   <path id="Frame_icon_web" d="M95.424,124.4H47.593l-33.592,0a12,12,0,0,1-12-12V12A12,12,0,0,1,14,0H80.785l.255,0H95.424a10.364,10.364,0,0,0,10.129,10.165l-.005,4.374a2.907,2.907,0,1,0,0,5.813v2.324a2.907,2.907,0,1,0,0,5.814v2.324a2.907,2.907,0,0,0-2.06.852,2.874,2.874,0,0,0-.855,2.05,2.917,2.917,0,0,0,2.915,2.912v2.324a2.907,2.907,0,0,0-2.06.852,2.874,2.874,0,0,0-.855,2.05,2.917,2.917,0,0,0,2.915,2.911v2.324a2.906,2.906,0,0,0-2.06.852,2.876,2.876,0,0,0-.855,2.051,2.912,2.912,0,0,0,2.915,2.9V55.22a2.907,2.907,0,1,0,0,5.813v2.324a2.907,2.907,0,1,0,0,5.813V71.5a2.907,2.907,0,0,0-2.06.852,2.874,2.874,0,0,0-.855,2.05,2.917,2.917,0,0,0,2.915,2.912v2.324a2.906,2.906,0,0,0-2.06.852,2.876,2.876,0,0,0-.855,2.051,2.912,2.912,0,0,0,2.915,2.9v2.324a2.907,2.907,0,1,0,0,5.814V95.9a2.907,2.907,0,1,0,0,5.814v2.324a2.906,2.906,0,0,0-2.06.852,2.876,2.876,0,0,0-.855,2.051,2.916,2.916,0,0,0,2.915,2.911l0,3.987A10.328,10.328,0,0,0,95.423,124.2c0,.065,0,.131,0,.2h0Z" transform="translate(-1.501 0.499)" fill="#48A7F8" stroke="rgba(0,0,0,0)" stroke-miterlimit="10" stroke-width="1"></path>
</svg>