      <svg
        xmlns="http://www.w3.org/2000/svg"
        width="170"
        height="40"
        className="absolute top-0 left-0 pointer-events-none"
      >
        <path
          strokeWidth="0.5"
          stroke="#cdcfd0"
          strokeMiterlimit="10"
          fill="#fff"
          d="m35.78736,40.0979l-31.77396,0a3.89069,3.34149 0 0 1 -3.89069,-3.34149l0,-33.41491a3.89069,3.34149 0 0 1 3.89069,-3.34149l31.77396,0a3.89717,3.34706 0 0 0 3.89069,3.33314a3.89717,3.34706 0 0 0 3.89069,-3.33314l122.23248,0a3.89069,3.34149 0 0 1 3.89069,3.34149l0,33.41491a3.89069,3.34149 0 0 1 -3.89069,3.34149l-122.23248,0l0,-0.00835a3.89069,3.34149 0 0 0 -7.78138,0l0,0.00835z"
        />
      </svg>