<svg xmlns="http://www.w3.org/2000/svg" width="48" height="33.39" viewBox="0 0 48 33.39" class="mdl-js">
  <g id="ico_ewallet" transform="translate(451.67 306.481)">
    <g id="Group_1081" data-name="Group 1081" transform="translate(-452 -596.533)">
      <path id="Path_510" data-name="Path 510" d="M4.639,1.518A4.326,4.326,0,0,0,.33,5.83V7.441h48V5.83a4.339,4.339,0,0,0-4.325-4.312ZM.33,14.6v16a4.326,4.326,0,0,0,4.309,4.312H44.006A4.339,4.339,0,0,0,48.33,30.6v-16H.33Zm7.661,4.684H20.075a1.225,1.225,0,0,1,0,2.45H8.064a1.226,1.226,0,0,1-.073-2.45ZM14.4,23a1.22,1.22,0,1,1-.038,2.44H8.064a1.22,1.22,0,0,1-.118-2.437q.059,0,.118,0h6.295l.038,0Z" transform="translate(0 288.533)" fill="#fff"/>
    </g>
  </g>
</svg>