<svg xmlns="http://www.w3.org/2000/svg" xmlns:xlink="http://www.w3.org/1999/xlink" fill="none" height="512" viewBox="0 0 100 100" width="512" class="mdl-js"><linearGradient id="paint0_linear_18_2" gradientUnits="userSpaceOnUse" x1="50" x2="50" y1="0" y2="100"><stop offset="0" stop-color="#19afff"/><stop offset="1" stop-color="#0062e0"/></linearGradient><clipPath id="clip0_18_2"><path d="m0 0h100v100h-100z"/></clipPath><g clip-path="url(#clip0_18_2)"><rect fill="url(#paint0_linear_18_2)" height="100" rx="10" width="100"/><path d="m28.75 70c-1 0-1.875-.375-2.625-1.125s-1.125-1.625-1.125-2.625v-32.5c0-1 .375-1.875 1.125-2.625s1.625-1.125 2.625-1.125h42.5c1 0 1.875.375 2.625 1.125s1.125 1.625 1.125 2.625v32.5c0 1-.375 1.875-1.125 2.625s-1.625 1.125-2.625 1.125zm42.5-32.8125-20.25 13.25c-.1667.0833-.3229.1563-.4688.2187-.1458.0626-.3229.0938-.5312.0938s-.3854-.0312-.5312-.0938c-.1459-.0624-.3021-.1354-.4688-.2187l-20.25-13.25v29.0625h42.5zm-21.25 10.1875 21-13.625h-41.9375zm-21.25-9.75v-2.4688.0313-.0625z" fill="#fff"/></g></svg>