<svg xmlns="http://www.w3.org/2000/svg" xmlns:xlink="http://www.w3.org/1999/xlink" width="16" height="16" viewBox="0 0 16 16" class="mdl-js"><defs><style>.a{fill:#0d0e0f;}.b{clip-path:url(#a);}</style><clipPath id="a"><rect class="a" width="16" height="16" rx="4" transform="translate(692 165)"/></clipPath></defs><g class="b" transform="translate(-692 -165)"><g transform="translate(692 165)"><path class="a" d="M8,3.333A.666.666,0,0,0,7.333,4V8A.666.666,0,0,0,8,8.667h4a.667.667,0,0,0,0-1.333H8.667V4A.666.666,0,0,0,8,3.333Zm0,0"/><path class="a" d="M8,0A8.456,8.456,0,0,0,2.3,2.261L.853.813A.5.5,0,0,0,0,1.167V5.5A.5.5,0,0,0,.5,6H4.833a.5.5,0,0,0,.353-.853L3.25,3.209A7.1,7.1,0,0,1,8,1.333,6.667,6.667,0,1,1,8,14.667a6.6,6.6,0,0,1-4.709-1.955.667.667,0,0,0-.945.941A7.924,7.924,0,0,0,8,16,8,8,0,0,0,8,0ZM8,0"/></g></g></svg>