<svg xmlns="http://www.w3.org/2000/svg" width="80" height="80" viewBox="0 0 80 80" class="mdl-js"><defs><style>.a{fill:#f2f4f5;}.b{fill:#e3e5e5;}.c{fill:#cdcfd0;}.d{fill:#464a4c;}.e{fill:none;stroke:#b4b6b8;stroke-linecap:round;stroke-linejoin:round;}</style></defs><g transform="translate(-197.59 -86.79)"><path class="a" d="M277.59,126.79c0,.6-.011,1.189-.043,1.776a39.393,39.393,0,0,1-.907,6.923c-.171.763-.357,1.515-.576,2.256a40.008,40.008,0,0,1-76.907.149c-.107-.363-.208-.736-.3-1.1a39.487,39.487,0,0,1-1.216-8.155c-.032-.608-.048-1.227-.048-1.845a40,40,0,1,1,80,0Z" transform="translate(0 0)"/><path class="b" d="M277.586,164.057a41.511,41.511,0,0,1-.907,7.111c-.171.783-.357,1.556-.576,2.317a44.083,44.083,0,0,1-10.453,13.8q-.944.838-1.936,1.611a42.037,42.037,0,0,1-23.151,8.968c-.971.071-1.952.1-2.944.1q-1.008,0-2-.049a41.994,41.994,0,0,1-24.074-9.007q-1.008-.781-1.957-1.627A44.294,44.294,0,0,1,199.2,173.639c-.107-.373-.208-.756-.3-1.134a41.589,41.589,0,0,1-1.216-8.377,19.3,19.3,0,0,1,6.933-1.359,11.849,11.849,0,0,1,4.976.97,9.206,9.206,0,0,1,1.989,1.216c4.389,3.43,5.173,9.735,11.946,9.735,9.317,0,9.093-11.921,22.314-11.921s8.49,11.921,15.8,11.921a6.264,6.264,0,0,0,2.08-.351,7.691,7.691,0,0,0,1.936-1C269.005,171.021,271.731,166.326,277.586,164.057Z" transform="translate(-0.041 -36.532)"/><path class="c" d="M277.686,177.6c-.171.783-.357,1.556-.576,2.317a41.147,41.147,0,0,1-12.38,19.893,39.134,39.134,0,0,1-52.13,0,41.163,41.163,0,0,1-12.337-19.739c-.107-.373-.208-.756-.3-1.134A18.73,18.73,0,0,1,207.975,177a10.965,10.965,0,0,1,4.626.9c5.835,2.641,5.814,10.19,12.961,10.19,8.66,0,8.452-11.094,20.747-11.094s7.9,11.094,14.693,11.094a6.376,6.376,0,0,0,3.73-1.26C268.184,184.451,270.924,179.345,277.686,177.6Z" transform="translate(-1.072 -42.966)"/><path class="d" d="M269.511,139.238h-3.889v-5.068c0-9.346-7.3-16.951-16.256-16.951s-16.251,7.6-16.251,16.951v5.068h-3.905a5.646,5.646,0,0,0-5.5,5.122,6.368,6.368,0,0,0-.032.641v27.782a38.2,38.2,0,0,0,51.413,0V145A5.684,5.684,0,0,0,269.511,139.238Zm-29.054-5.068a8.914,8.914,0,1,1,17.812,0v5.068H240.457Zm11.279,43.4h-3.868a.586.586,0,0,1-.463-.247.6.6,0,0,1-.126-.373v-8.42a7.391,7.391,0,0,1-4.552-6.9,7.1,7.1,0,1,1,14.2,0,7.391,7.391,0,0,1-4.552,6.9v8.42a.549.549,0,0,1-.095.318A.619.619,0,0,1,251.736,177.571Z" transform="translate(-11.797 -15.937)"/><g transform="translate(208.475 105.025)"><line class="e" y2="2.625" transform="translate(1.313 0)"/><line class="e" x2="2.625" transform="translate(0 1.313)"/></g><g transform="translate(213.497 110.107)"><line class="e" y2="2.625" transform="translate(1.313)"/><line class="e" x2="2.625" transform="translate(0 1.313)"/></g><g transform="translate(208.361 115.424)"><line class="e" y2="2.625" transform="translate(1.313)"/><line class="e" x2="2.625" transform="translate(0 1.313)"/></g><g transform="translate(263.953 110.074)"><line class="e" y2="2.582" transform="translate(1.291 0)"/><line class="e" x2="2.582" transform="translate(0 1.291)"/></g><g transform="translate(259.561 115.535)"><line class="e" y2="2.582" transform="translate(1.291 0)"/><line class="e" x2="2.582" transform="translate(0 1.291)"/></g><g transform="translate(265.244 120.817)"><line class="e" y2="2.582" transform="translate(1.291)"/><line class="e" x2="2.582" transform="translate(0 1.291)"/></g></g></svg>