<svg xmlns="http://www.w3.org/2000/svg" xmlns:xlink="http://www.w3.org/1999/xlink" width="44.001" height="44" viewBox="0 0 44.001 44" class="mdl-js"><defs><style>.a{fill:url(#a);}.b{opacity:0.4;mix-blend-mode:soft-light;isolation:isolate;fill:url(#b);}.c{fill:#fff;}.d{filter:url(#k);}.e{filter:url(#i);}.f{filter:url(#g);}.g{filter:url(#e);}.h{filter:url(#c);}</style><linearGradient id="a" y1="0.041" x2="1" y2="1" gradientUnits="objectBoundingBox"><stop offset="0" stop-color="#9990ff"/><stop offset="1" stop-color="#5538ee"/></linearGradient><linearGradient id="b" x1="0.287" x2="0.297" y2="1.017" gradientUnits="objectBoundingBox"><stop offset="0" stop-color="#fff" stop-opacity="0"/><stop offset="1" stop-color="#fff" stop-opacity="0.902"/></linearGradient><filter id="c" x="5" y="7.783" width="17.714" height="16.551" filterUnits="userSpaceOnUse"><feOffset dy="2" input="SourceAlpha"/><feGaussianBlur stdDeviation="1" result="d"/><feFlood flood-opacity="0.102"/><feComposite operator="in" in2="d"/><feComposite in="SourceGraphic"/></filter><filter id="e" x="16.012" y="12.717" width="13.149" height="11.644" filterUnits="userSpaceOnUse"><feOffset dy="2" input="SourceAlpha"/><feGaussianBlur stdDeviation="1" result="f"/><feFlood flood-opacity="0.102"/><feComposite operator="in" in2="f"/><feComposite in="SourceGraphic"/></filter><filter id="g" x="18.527" y="6" width="20.472" height="17.969" filterUnits="userSpaceOnUse"><feOffset dy="2" input="SourceAlpha"/><feGaussianBlur stdDeviation="1" result="h"/><feFlood flood-opacity="0.102"/><feComposite operator="in" in2="h"/><feComposite in="SourceGraphic"/></filter><filter id="i" x="6.782" y="17.463" width="31.624" height="24.536" filterUnits="userSpaceOnUse"><feOffset dy="2" input="SourceAlpha"/><feGaussianBlur stdDeviation="1" result="j"/><feFlood flood-opacity="0.102"/><feComposite operator="in" in2="j"/><feComposite in="SourceGraphic"/></filter><filter id="k" x="14.547" y="26.301" width="16.099" height="8.97" filterUnits="userSpaceOnUse"><feOffset dy="2" input="SourceAlpha"/><feGaussianBlur stdDeviation="1" result="l"/><feFlood flood-opacity="0.102"/><feComposite operator="in" in2="l"/><feComposite in="SourceGraphic"/></filter></defs><g transform="translate(10167 18273)"><g transform="translate(-10167 -18273)"><rect class="a" width="44" height="44" rx="8"/></g><path class="b" d="M22,50.993V30a8,8,0,0,1,8-8H54.992c.005.209.008.421.008.631C55,38.3,40.547,51,22.717,51,22.477,51,22.238,51,22,50.993Z" transform="translate(-10100.999 -18207) rotate(180)"/><g transform="translate(-10180 -18266)"><g class="h" transform="matrix(1, 0, 0, 1, 13, -7)"><path class="c" d="M24.7,38.522a28.065,28.065,0,0,0,8.013,2.029l-1.3-2.246-4.423.265a.891.891,0,1,1-.107-1.779l3.533-.212-.786-1.361-4.423.265a.891.891,0,0,1-.107-1.779l3.533-.212-.987-1.71a3.564,3.564,0,1,0-6.174,3.564l1.393,2.413Z" transform="translate(-13 -21.22)"/></g><g class="g" transform="matrix(1, 0, 0, 1, 13, -7)"><path class="c" d="M209.25,120.644a28.356,28.356,0,0,0,3.516-.218,4.749,4.749,0,0,0-4.7-5.426,4.729,4.729,0,0,0-2.4.649l2.879,4.986Q208.9,120.644,209.25,120.644Z" transform="translate(-186.65 -101.28)"/></g><g class="f" transform="matrix(1, 0, 0, 1, 13, -7)"><path class="c" d="M253.2,8.788a12.863,12.863,0,0,0,.781-3.072.891.891,0,1,1,1.776.151,15.574,15.574,0,0,1-1.929,5.777c0,.109-.005.217-.012.324a28.169,28.169,0,0,0,5.52-1.664l1.073-.447a3.429,3.429,0,0,0-.584-.951,3.413,3.413,0,0,0-1.391-6.53,3.33,3.33,0,0,0-.883.119,3.4,3.4,0,0,0-6.528-.1c-.105-.01-.209-.016-.312-.016a3.421,3.421,0,0,0-3.334,2.674A6.544,6.544,0,0,1,253.2,8.788Z" transform="translate(-225.85 7)"/></g><g class="e" transform="matrix(1, 0, 0, 1, 13, -7)"><path class="c" d="M75.383,200.049a30.179,30.179,0,0,1-23.149,0,.893.893,0,0,0-1.233.917c.3,2.771,1.376,12.907,1.617,15.159a2.673,2.673,0,0,0,2.666,2.389H72.332A2.673,2.673,0,0,0,75,216.126c.241-2.252,1.319-12.389,1.617-15.159A.893.893,0,0,0,75.383,200.049Zm-4.721,12.525a.892.892,0,0,1-.894.891H57.85a.892.892,0,0,1-.894-.891v-4.752a.892.892,0,0,1,.894-.891H69.768a.892.892,0,0,1,.894.891Z" transform="translate(-41.21 -181.51)"/></g><g class="d" transform="matrix(1, 0, 0, 1, 13, -7)"><path class="c" d="M181,347h10.1v2.97H181Z" transform="translate(-163.45 -319.7)"/></g></g></g></svg>