<svg xmlns="http://www.w3.org/2000/svg" width="76" height="17" viewBox="0 0 76 17" fill="none" class="mdl-js">
<path d="M74 0H2C0.89543 0 0 0.89543 0 2V15C0 16.1046 0.89543 17 2 17H74C75.1046 17 76 16.1046 76 15V2C76 0.89543 75.1046 0 74 0Z" fill="url(#paint0_linear_5229_1099)"/>
<path d="M8.818 7.932C9.38733 8.08133 9.826 8.36133 10.134 8.772C10.4513 9.18267 10.61 9.696 10.61 10.312C10.61 11.18 10.3253 11.8473 9.756 12.314C9.18667 12.7713 8.37933 13 7.334 13H3.218V3.13H7.18C8.19733 3.13 8.986 3.354 9.546 3.802C10.106 4.25 10.386 4.88467 10.386 5.706C10.386 6.238 10.246 6.69533 9.966 7.078C9.69533 7.46067 9.31267 7.74533 8.818 7.932ZM4.352 7.512H7.012C7.74933 7.512 8.30467 7.36267 8.678 7.064C9.06067 6.76533 9.252 6.33133 9.252 5.762C9.252 4.642 8.50533 4.082 7.012 4.082H4.352V7.512ZM7.222 12.048C7.99667 12.048 8.566 11.908 8.93 11.628C9.30333 11.3387 9.49 10.8907 9.49 10.284C9.49 9.07067 8.734 8.464 7.222 8.464H4.352V12.048H7.222ZM15.2556 6.014C16.1236 6.014 16.7676 6.238 17.1876 6.686C17.6169 7.12467 17.8316 7.79667 17.8316 8.702V13H16.7256V11.838C16.5483 12.2393 16.2776 12.552 15.9136 12.776C15.5496 12.9907 15.1296 13.098 14.6536 13.098C14.2149 13.098 13.8089 13.0093 13.4356 12.832C13.0716 12.6547 12.7823 12.4073 12.5676 12.09C12.3529 11.7727 12.2456 11.4227 12.2456 11.04C12.2456 10.5267 12.3763 10.13 12.6376 9.85C12.8989 9.56067 13.3283 9.35533 13.9256 9.234C14.5229 9.10333 15.3536 9.038 16.4176 9.038H16.7256V8.576C16.7256 8.00667 16.6089 7.596 16.3756 7.344C16.1423 7.08267 15.7643 6.952 15.2416 6.952C14.4576 6.952 13.6783 7.19467 12.9036 7.68L12.5256 6.854C12.8803 6.602 13.3049 6.40133 13.7996 6.252C14.3036 6.09333 14.7889 6.014 15.2556 6.014ZM14.8076 12.202C15.3676 12.202 15.8249 12.0153 16.1796 11.642C16.5436 11.2593 16.7256 10.7693 16.7256 10.172V9.766H16.4736C15.6523 9.766 15.0269 9.80333 14.5976 9.878C14.1683 9.94333 13.8603 10.06 13.6736 10.228C13.4963 10.3867 13.4076 10.6247 13.4076 10.942C13.4076 11.306 13.5383 11.6093 13.7996 11.852C14.0703 12.0853 14.4063 12.202 14.8076 12.202ZM15.6616 5.286H14.8776L16.2636 2.458H17.5656L15.6616 5.286ZM23.3374 6.014C24.9708 6.014 25.7874 6.91467 25.7874 8.716V13H24.6534V8.786C24.6534 8.15133 24.5274 7.68933 24.2754 7.4C24.0328 7.11067 23.6408 6.966 23.0994 6.966C22.4741 6.966 21.9748 7.15733 21.6014 7.54C21.2281 7.92267 21.0414 8.44067 21.0414 9.094V13H19.9074V6.182H21.0274V7.302C21.2514 6.882 21.5641 6.56467 21.9654 6.35C22.3668 6.126 22.8241 6.014 23.3374 6.014ZM34.3578 13.098C33.6858 13.098 33.1025 12.9533 32.6078 12.664C32.1132 12.3747 31.7305 11.9687 31.4598 11.446C31.1985 10.914 31.0678 10.2933 31.0678 9.584C31.0678 8.87467 31.2032 8.254 31.4738 7.722C31.7538 7.18067 32.1412 6.76067 32.6358 6.462C33.1398 6.16333 33.7278 6.014 34.3998 6.014C34.8572 6.014 35.3052 6.098 35.7438 6.266C36.1825 6.42467 36.5372 6.63933 36.8078 6.91L36.4298 7.75C35.7858 7.22733 35.1325 6.966 34.4698 6.966C33.7698 6.966 33.2238 7.19467 32.8318 7.652C32.4398 8.10933 32.2438 8.75333 32.2438 9.584C32.2438 10.4053 32.4398 11.04 32.8318 11.488C33.2238 11.936 33.7698 12.16 34.4698 12.16C35.1325 12.16 35.7858 11.8987 36.4298 11.376L36.8078 12.216C36.5185 12.4867 36.1545 12.7013 35.7158 12.86C35.2772 13.0187 34.8245 13.098 34.3578 13.098ZM41.603 6.014C43.2364 6.014 44.053 6.91467 44.053 8.716V13H42.919V8.786C42.919 8.15133 42.793 7.68933 42.541 7.4C42.2984 7.11067 41.9064 6.966 41.365 6.966C40.7397 6.966 40.2404 7.15733 39.867 7.54C39.4937 7.92267 39.307 8.44067 39.307 9.094V13H38.173V3.13H39.307V7.274C39.531 6.86333 39.839 6.55067 40.231 6.336C40.6324 6.12133 41.0897 6.014 41.603 6.014ZM48.9021 6.014C49.7701 6.014 50.4141 6.238 50.8341 6.686C51.2634 7.12467 51.4781 7.79667 51.4781 8.702V13H50.3721V11.838C50.1947 12.2393 49.9241 12.552 49.5601 12.776C49.1961 12.9907 48.7761 13.098 48.3001 13.098C47.8614 13.098 47.4554 13.0093 47.0821 12.832C46.7181 12.6547 46.4287 12.4073 46.2141 12.09C45.9994 11.7727 45.8921 11.4227 45.8921 11.04C45.8921 10.5267 46.0227 10.13 46.2841 9.85C46.5454 9.56067 46.9747 9.35533 47.5721 9.234C48.1694 9.10333 49.0001 9.038 50.0641 9.038H50.3721V8.576C50.3721 8.00667 50.2554 7.596 50.0221 7.344C49.7887 7.08267 49.4107 6.952 48.8881 6.952C48.1041 6.952 47.3247 7.19467 46.5501 7.68L46.1721 6.854C46.5267 6.602 46.9514 6.40133 47.4461 6.252C47.9501 6.09333 48.4354 6.014 48.9021 6.014ZM48.4541 12.202C49.0141 12.202 49.4714 12.0153 49.8261 11.642C50.1901 11.2593 50.3721 10.7693 50.3721 10.172V9.766H50.1201C49.2987 9.766 48.6734 9.80333 48.2441 9.878C47.8147 9.94333 47.5067 10.06 47.3201 10.228C47.1427 10.3867 47.0541 10.6247 47.0541 10.942C47.0541 11.306 47.1847 11.6093 47.4461 11.852C47.7167 12.0853 48.0527 12.202 48.4541 12.202ZM48.2301 14.316H49.5181V15.548H48.2301V14.316ZM58.4399 6.196H59.5739L55.5419 15.52H54.3799L55.5279 12.916L52.6439 6.196H53.8479L56.1299 11.768L58.4399 6.196Z" fill="white"/>
<g clip-path="url(#clip0_5229_1099)">
<path d="M68.3351 14.237C68.9952 14.1153 69.6149 13.8317 70.1385 13.4116C70.6621 12.9915 71.0732 12.4481 71.3351 11.83C71.5832 11.2093 71.6653 10.5347 71.5734 9.87256C71.4815 9.21046 71.2188 8.58373 70.8111 8.05402C70.1111 7.18402 69.2211 6.68101 69.1571 5.44501C69.1289 4.77433 69.263 4.10678 69.5481 3.49902C69.5481 3.49902 65.5911 4.03103 67.0851 8.18903C66.8794 8.28023 66.6572 8.32867 66.4322 8.33142C66.2072 8.33417 65.984 8.29116 65.7761 8.20502C65.5287 8.05809 65.3235 7.8498 65.1802 7.60034C65.0369 7.35088 64.9604 7.06868 64.9581 6.78101C64.2097 7.48223 63.7286 8.42194 63.5971 9.43903C63.4436 10.2585 63.5369 11.1052 63.8652 11.8716C64.1935 12.638 64.742 13.2897 65.4411 13.744C66.308 14.2702 67.3428 14.4464 68.3351 14.237Z" fill="url(#paint1_linear_5229_1099)" stroke="white" stroke-miterlimit="10" stroke-linecap="round" stroke-linejoin="round"/>
</g>
<defs>
<linearGradient id="paint0_linear_5229_1099" x1="45.448" y1="18.632" x2="45.0741" y2="-9.66447" gradientUnits="userSpaceOnUse">
<stop stop-color="#DB342A"/>
<stop offset="1" stop-color="#FF8D29"/>
</linearGradient>
<linearGradient id="paint1_linear_5229_1099" x1="67.5675" y1="8.22911" x2="67.5675" y2="13.9225" gradientUnits="userSpaceOnUse">
<stop stop-color="#FF8D29"/>
<stop offset="1" stop-color="#DB342A"/>
</linearGradient>
<clipPath id="clip0_5229_1099">
<rect width="9.164" height="11.827" fill="white" transform="translate(63 3)"/>
</clipPath>
</defs>
</svg>