<svg xmlns="http://www.w3.org/2000/svg" width="83" height="17" viewBox="0 0 83 17" fill="none" class="mdl-js">
<path d="M81 0H2C0.89543 0 0 0.89543 0 2V15C0 16.1046 0.89543 17 2 17H81C82.1046 17 83 16.1046 83 15V2C83 0.89543 82.1046 0 81 0Z" fill="url(#paint0_linear_1065_2400)"/>
<path d="M2.14 13L6.06 7.736V8.17L2.322 3.13H3.666L6.746 7.344H6.382L9.434 3.13H10.792L7.054 8.17V7.736L10.96 13H9.602L6.326 8.534H6.774L3.512 13H2.14ZM14.5775 13.126C14.0268 13.126 13.5695 13.028 13.2055 12.832C12.8508 12.6267 12.5801 12.3233 12.3935 11.922C12.2161 11.5207 12.1275 11.0213 12.1275 10.424V6.196H13.2615V10.41C13.2615 10.8113 13.3128 11.1473 13.4155 11.418C13.5275 11.6793 13.7001 11.8753 13.9335 12.006C14.1668 12.1273 14.4561 12.188 14.8015 12.188C15.1935 12.188 15.5341 12.0993 15.8235 11.922C16.1128 11.7447 16.3415 11.4973 16.5095 11.18C16.6775 10.8627 16.7615 10.4893 16.7615 10.06V6.196H17.8955V13H16.7895V11.432H16.9715C16.7848 11.9827 16.4768 12.4027 16.0475 12.692C15.6275 12.9813 15.1375 13.126 14.5775 13.126ZM23.6128 13V3.13H24.7468V7.708H24.5648C24.7608 7.16667 25.0782 6.76067 25.5168 6.49C25.9648 6.21 26.4782 6.07 27.0568 6.07C27.5982 6.07 28.0462 6.168 28.4008 6.364C28.7648 6.56 29.0355 6.85867 29.2128 7.26C29.3902 7.652 29.4788 8.15133 29.4788 8.758V13H28.3448V8.828C28.3448 8.408 28.2888 8.06267 28.1768 7.792C28.0742 7.52133 27.9062 7.32067 27.6728 7.19C27.4488 7.05933 27.1548 6.994 26.7908 6.994C26.3802 6.994 26.0208 7.08267 25.7128 7.26C25.4048 7.43733 25.1668 7.68467 24.9988 8.002C24.8308 8.31933 24.7468 8.69267 24.7468 9.122V13H23.6128ZM33.9779 13.126C33.4272 13.126 32.9699 13.028 32.6059 12.832C32.2512 12.6267 31.9805 12.3233 31.7939 11.922C31.6165 11.5207 31.5279 11.0213 31.5279 10.424V6.196H32.6619V10.41C32.6619 10.8113 32.7132 11.1473 32.8159 11.418C32.9279 11.6793 33.1005 11.8753 33.3339 12.006C33.5672 12.1273 33.8565 12.188 34.2019 12.188C34.5939 12.188 34.9345 12.0993 35.2239 11.922C35.5132 11.7447 35.7419 11.4973 35.9099 11.18C36.0779 10.8627 36.1619 10.4893 36.1619 10.06V6.196H37.2959V13H36.1899V11.432H36.3719C36.1852 11.9827 35.8772 12.4027 35.4479 12.692C35.0279 12.9813 34.5379 13.126 33.9779 13.126ZM36.9739 6.896L36.3859 6.504V6.196C36.7779 6.18667 37.0859 6.126 37.3099 6.014C37.5339 5.902 37.6925 5.72933 37.7859 5.496C37.8792 5.26267 37.9259 4.964 37.9259 4.6V4.376H38.9339V4.768C38.9339 5.188 38.8545 5.552 38.6959 5.86C38.5465 6.168 38.3225 6.41067 38.0239 6.588C37.7345 6.76533 37.3845 6.868 36.9739 6.896ZM42.2455 13.126C41.5828 13.126 41.0088 12.9813 40.5235 12.692C40.0382 12.4027 39.6602 11.9967 39.3895 11.474C39.1282 10.942 38.9975 10.3167 38.9975 9.598C38.9975 8.87933 39.1282 8.25867 39.3895 7.736C39.6602 7.204 40.0382 6.79333 40.5235 6.504C41.0088 6.21467 41.5828 6.07 42.2455 6.07C42.9082 6.07 43.4822 6.21467 43.9675 6.504C44.4528 6.79333 44.8262 7.204 45.0875 7.736C45.3582 8.25867 45.4935 8.87933 45.4935 9.598C45.4935 10.3167 45.3582 10.942 45.0875 11.474C44.8262 11.9967 44.4528 12.4027 43.9675 12.692C43.4822 12.9813 42.9082 13.126 42.2455 13.126ZM42.2455 12.216C42.8895 12.216 43.3982 11.992 43.7715 11.544C44.1542 11.0867 44.3455 10.4333 44.3455 9.584C44.3455 8.744 44.1542 8.1 43.7715 7.652C43.3982 7.204 42.8895 6.98 42.2455 6.98C41.6108 6.98 41.1022 7.204 40.7195 7.652C40.3368 8.1 40.1455 8.744 40.1455 9.584C40.1455 10.4333 40.3368 11.0867 40.7195 11.544C41.1022 11.992 41.6108 12.216 42.2455 12.216ZM43.5615 6.896L42.9735 6.504V6.196C43.3655 6.18667 43.6735 6.126 43.8975 6.014C44.1215 5.902 44.2802 5.72933 44.3735 5.496C44.4668 5.26267 44.5135 4.964 44.5135 4.6V4.376H45.5215V4.768C45.5215 5.188 45.4422 5.552 45.2835 5.86C45.1342 6.168 44.9102 6.41067 44.6115 6.588C44.3222 6.76533 43.9722 6.868 43.5615 6.896ZM41.8255 5.286L43.2675 2.458H44.4855L42.6375 5.286H41.8255ZM47.1968 13V6.196H48.3028V7.708H48.1488C48.3448 7.16667 48.6621 6.76067 49.1008 6.49C49.5488 6.21 50.0621 6.07 50.6408 6.07C51.1821 6.07 51.6301 6.168 51.9848 6.364C52.3488 6.55067 52.6195 6.84467 52.7968 7.246C52.9741 7.64733 53.0628 8.15133 53.0628 8.758V13H51.9288V8.828C51.9288 8.408 51.8728 8.06267 51.7608 7.792C51.6581 7.52133 51.4901 7.32067 51.2568 7.19C51.0328 7.05933 50.7388 6.994 50.3748 6.994C49.9641 6.994 49.6048 7.08267 49.2968 7.26C48.9888 7.43733 48.7508 7.68467 48.5828 8.002C48.4148 8.31933 48.3308 8.69267 48.3308 9.122V13H47.1968ZM58.1638 15.646C57.5758 15.646 57.0205 15.5667 56.4978 15.408C55.9845 15.2587 55.5272 15.03 55.1258 14.722L55.5038 13.896C55.7838 14.092 56.0592 14.2507 56.3298 14.372C56.6098 14.5027 56.8945 14.596 57.1838 14.652C57.4825 14.708 57.7905 14.736 58.1078 14.736C58.7705 14.736 59.2698 14.5587 59.6058 14.204C59.9512 13.8493 60.1238 13.336 60.1238 12.664V11.082H60.2638C60.1238 11.6233 59.8252 12.0527 59.3678 12.37C58.9198 12.6873 58.3925 12.846 57.7858 12.846C57.1605 12.846 56.6192 12.706 56.1618 12.426C55.7045 12.1367 55.3498 11.7353 55.0978 11.222C54.8552 10.7087 54.7338 10.116 54.7338 9.444C54.7338 8.772 54.8552 8.184 55.0978 7.68C55.3498 7.16667 55.7045 6.77 56.1618 6.49C56.6192 6.21 57.1605 6.07 57.7858 6.07C58.4018 6.07 58.9338 6.22867 59.3818 6.546C59.8298 6.854 60.1192 7.274 60.2498 7.806H60.1238V6.196H61.2298V12.51C61.2298 13.2007 61.1132 13.7793 60.8798 14.246C60.6558 14.7127 60.3152 15.0627 59.8578 15.296C59.4005 15.5293 58.8358 15.646 58.1638 15.646ZM57.9958 11.922C58.6492 11.922 59.1672 11.698 59.5498 11.25C59.9325 10.802 60.1238 10.2 60.1238 9.444C60.1238 8.688 59.9325 8.09067 59.5498 7.652C59.1672 7.204 58.6492 6.98 57.9958 6.98C57.3518 6.98 56.8385 7.204 56.4558 7.652C56.0732 8.09067 55.8818 8.688 55.8818 9.444C55.8818 10.2 56.0732 10.802 56.4558 11.25C56.8385 11.698 57.3518 11.922 57.9958 11.922Z" fill="white"/>
<path d="M79.1623 5.01764H74.9313C74.7937 5.01764 74.6619 5.07227 74.5646 5.16951C74.4674 5.26674 74.4128 5.39863 74.4128 5.53614C74.4128 5.67366 74.4674 5.80554 74.5646 5.90278C74.6619 6.00001 74.7937 6.05464 74.9313 6.05464H77.8633L73.0293 11.0356L70.0203 8.08964C69.9201 7.99174 69.7853 7.93745 69.6453 7.93864C69.5053 7.9381 69.3708 7.99229 69.2703 8.08964L64.1493 13.1016C64.1004 13.1508 64.0622 13.2094 64.0369 13.2739C64.0116 13.3384 63.9998 13.4074 64.0023 13.4766C64.0004 13.5431 64.0125 13.6093 64.0379 13.6707C64.0632 13.7322 64.1011 13.7877 64.1493 13.8336C64.2494 13.9315 64.3842 13.9858 64.5243 13.9846C64.6642 13.9852 64.7988 13.931 64.8993 13.8336L69.6493 9.18564L72.6583 12.1316C72.7584 12.2295 72.8932 12.2838 73.0333 12.2826C73.1732 12.2832 73.3078 12.229 73.4083 12.1316L78.6413 6.81064V9.67264C78.6413 9.81294 78.697 9.94749 78.7962 10.0467C78.8954 10.1459 79.03 10.2016 79.1703 10.2016C79.3106 10.2016 79.4451 10.1459 79.5443 10.0467C79.6435 9.94749 79.6993 9.81294 79.6993 9.67264V5.53564C79.6964 5.39586 79.6383 5.26291 79.5376 5.16584C79.437 5.06878 79.3021 5.0155 79.1623 5.01764Z" fill="white"/>
<defs>
<linearGradient id="paint0_linear_1065_2400" x1="38.761" y1="31.144" x2="38.538" y2="-8.66451" gradientUnits="userSpaceOnUse">
<stop stop-color="#D5232A"/>
<stop offset="0.237" stop-color="#D62629"/>
<stop offset="1" stop-color="#FE9000"/>
</linearGradient>
</defs>
</svg>