<svg xmlns="http://www.w3.org/2000/svg" xmlns:xlink="http://www.w3.org/1999/xlink" width="44.001" height="44" viewBox="0 0 44.001 44" class="mdl-js"><defs><style>.a{fill:url(#a);}.b{opacity:0.4;mix-blend-mode:soft-light;isolation:isolate;fill:url(#b);}.c{fill:#fff;}.d{filter:url(#ac);}.e{filter:url(#aa);}.f{filter:url(#y);}.g{filter:url(#w);}.h{filter:url(#u);}.i{filter:url(#s);}.j{filter:url(#q);}.k{filter:url(#o);}.l{filter:url(#m);}.m{filter:url(#k);}.n{filter:url(#i);}.o{filter:url(#g);}.p{filter:url(#e);}.q{filter:url(#c);}</style><linearGradient id="a" y1="0.041" x2="1" y2="1" gradientUnits="objectBoundingBox"><stop offset="0" stop-color="#9990ff"/><stop offset="1" stop-color="#5538ee"/></linearGradient><linearGradient id="b" x1="0.287" x2="0.297" y2="1.017" gradientUnits="objectBoundingBox"><stop offset="0" stop-color="#fff" stop-opacity="0"/><stop offset="1" stop-color="#fff" stop-opacity="0.902"/></linearGradient><filter id="c" x="19.824" y="17.007" width="11.97" height="13.987" filterUnits="userSpaceOnUse"><feOffset dy="2" input="SourceAlpha"/><feGaussianBlur stdDeviation="1" result="d"/><feFlood flood-opacity="0.102"/><feComposite operator="in" in2="d"/><feComposite in="SourceGraphic"/></filter><filter id="e" x="24.395" y="14.551" width="9.264" height="9.264" filterUnits="userSpaceOnUse"><feOffset dy="2" input="SourceAlpha"/><feGaussianBlur stdDeviation="1" result="f"/><feFlood flood-opacity="0.102"/><feComposite operator="in" in2="f"/><feComposite in="SourceGraphic"/></filter><filter id="g" x="9.43" y="23.408" width="10.93" height="10.93" filterUnits="userSpaceOnUse"><feOffset dy="2" input="SourceAlpha"/><feGaussianBlur stdDeviation="1" result="h"/><feFlood flood-opacity="0.102"/><feComposite operator="in" in2="h"/><feComposite in="SourceGraphic"/></filter><filter id="i" x="12.927" y="7" width="11.25" height="14.355" filterUnits="userSpaceOnUse"><feOffset dy="2" input="SourceAlpha"/><feGaussianBlur stdDeviation="1" result="j"/><feFlood flood-opacity="0.102"/><feComposite operator="in" in2="j"/><feComposite in="SourceGraphic"/></filter><filter id="k" x="12.206" y="17.007" width="11.97" height="13.987" filterUnits="userSpaceOnUse"><feOffset dy="2" input="SourceAlpha"/><feGaussianBlur stdDeviation="1" result="l"/><feFlood flood-opacity="0.102"/><feComposite operator="in" in2="l"/><feComposite in="SourceGraphic"/></filter><filter id="m" x="13.909" y="26.646" width="10.268" height="14.354" filterUnits="userSpaceOnUse"><feOffset dy="2" input="SourceAlpha"/><feGaussianBlur stdDeviation="1" result="n"/><feFlood flood-opacity="0.102"/><feComposite operator="in" in2="n"/><feComposite in="SourceGraphic"/></filter><filter id="o" x="19.823" y="26.646" width="11.252" height="14.354" filterUnits="userSpaceOnUse"><feOffset dy="2" input="SourceAlpha"/><feGaussianBlur stdDeviation="1" result="p"/><feFlood flood-opacity="0.102"/><feComposite operator="in" in2="p"/><feComposite in="SourceGraphic"/></filter><filter id="q" x="22.686" y="26.645" width="15.132" height="13.866" filterUnits="userSpaceOnUse"><feOffset dy="2" input="SourceAlpha"/><feGaussianBlur stdDeviation="1" result="r"/><feFlood flood-opacity="0.102"/><feComposite operator="in" in2="r"/><feComposite in="SourceGraphic"/></filter><filter id="s" x="6.182" y="26.646" width="15.085" height="13.853" filterUnits="userSpaceOnUse"><feOffset dy="2" input="SourceAlpha"/><feGaussianBlur stdDeviation="1" result="t"/><feFlood flood-opacity="0.102"/><feComposite operator="in" in2="t"/><feComposite in="SourceGraphic"/></filter><filter id="u" x="27.112" y="17.007" width="11.889" height="13.987" filterUnits="userSpaceOnUse"><feOffset dy="2" input="SourceAlpha"/><feGaussianBlur stdDeviation="1" result="v"/><feFlood flood-opacity="0.102"/><feComposite operator="in" in2="v"/><feComposite in="SourceGraphic"/></filter><filter id="w" x="5" y="17.007" width="11.89" height="13.987" filterUnits="userSpaceOnUse"><feOffset dy="2" input="SourceAlpha"/><feGaussianBlur stdDeviation="1" result="x"/><feFlood flood-opacity="0.102"/><feComposite operator="in" in2="x"/><feComposite in="SourceGraphic"/></filter><filter id="y" x="22.685" y="7.488" width="15.133" height="13.866" filterUnits="userSpaceOnUse"><feOffset dy="2" input="SourceAlpha"/><feGaussianBlur stdDeviation="1" result="z"/><feFlood flood-opacity="0.102"/><feComposite operator="in" in2="z"/><feComposite in="SourceGraphic"/></filter><filter id="aa" x="19.823" y="7" width="10.59" height="14.354" filterUnits="userSpaceOnUse"><feOffset dy="2" input="SourceAlpha"/><feGaussianBlur stdDeviation="1" result="ab"/><feFlood flood-opacity="0.102"/><feComposite operator="in" in2="ab"/><feComposite in="SourceGraphic"/></filter><filter id="ac" x="6.182" y="7.489" width="15.134" height="13.867" filterUnits="userSpaceOnUse"><feOffset dy="2" input="SourceAlpha"/><feGaussianBlur stdDeviation="1" result="ad"/><feFlood flood-opacity="0.102"/><feComposite operator="in" in2="ad"/><feComposite in="SourceGraphic"/></filter></defs><g transform="translate(10167 18273)"><g transform="translate(-10167 -18273)"><rect class="a" width="44" height="44" rx="8"/></g><path class="b" d="M22,50.993V30a8,8,0,0,1,8-8H54.992c.005.209.008.421.008.631C55,38.3,40.547,51,22.717,51,22.477,51,22.238,51,22,50.993Z" transform="translate(-10100.999 -18207) rotate(180)"/><g transform="translate(-10159 -18265)"><g class="q" transform="matrix(1, 0, 0, 1, -8, -8)"><path class="c" d="M276.917,185.346a3.278,3.278,0,0,1-2.885-2.439H271v7.987h5.616A22.683,22.683,0,0,0,276.917,185.346Z" transform="translate(-248.18 -164.9)"/></g><g class="p" transform="matrix(1, 0, 0, 1, -8, -8)"><path class="c" d="M356.232,138.037a1.632,1.632,0,1,0,1.632,1.632A1.634,1.634,0,0,0,356.232,138.037Z" transform="translate(-327.21 -122.49)"/></g><g class="o" transform="matrix(1, 0, 0, 1, -8, -8)"><circle class="c" cx="2.465" cy="2.465" r="2.465" transform="translate(12.43 24.41)"/></g><g class="n" transform="matrix(1, 0, 0, 1, -8, -8)"><path class="c" d="M150.166,0a13.492,13.492,0,0,0-4.442,5.963,18.531,18.531,0,0,0-.808,2.392h5.25Z" transform="translate(-128.99 8)"/></g><g class="m" transform="matrix(1, 0, 0, 1, -8, -8)"><path class="c" d="M131.755,187.678a4.111,4.111,0,0,1,3.688,3.217h2.269v-7.987H132.1A22.657,22.657,0,0,0,131.755,187.678Z" transform="translate(-116.54 -164.9)"/></g><g class="l" transform="matrix(1, 0, 0, 1, -8, -8)"><path class="c" d="M167.154,367.448v-8.354h-2.247a4.115,4.115,0,0,1-2.021,2.81A12.732,12.732,0,0,0,167.154,367.448Z" transform="translate(-145.98 -331.45)"/></g><g class="k" transform="matrix(1, 0, 0, 1, -8, -8)"><path class="c" d="M271,367.448a13.617,13.617,0,0,0,4.586-6.317,18.792,18.792,0,0,0,.666-2.038H271Z" transform="translate(-248.18 -331.45)"/></g><g class="j" transform="matrix(1, 0, 0, 1, -8, -8)"><path class="c" d="M326.49,361.731a15.843,15.843,0,0,1-3.257,5.229,14.02,14.02,0,0,0,9.132-7.866h-5.044A20.627,20.627,0,0,1,326.49,361.731Z" transform="translate(-297.55 -331.45)"/></g><g class="i" transform="matrix(1, 0, 0, 1, -8, -8)"><path class="c" d="M27.334,362.431a4.11,4.11,0,0,1-4.031-3.338H21.626a14.021,14.021,0,0,0,9.085,7.853,14.89,14.89,0,0,1-2.935-4.539A4.127,4.127,0,0,1,27.334,362.431Z" transform="translate(-12.44 -331.45)"/></g><g class="h" transform="matrix(1, 0, 0, 1, -8, -8)"><path class="c" d="M404.484,185.07a24.4,24.4,0,0,1-.263,5.825h5.309a14.05,14.05,0,0,0,0-7.987H406.31A3.285,3.285,0,0,1,404.484,185.07Z" transform="translate(-374.11 -164.9)"/></g><g class="g" transform="matrix(1, 0, 0, 1, -8, -8)"><path class="c" d="M5.578,187.88a24.376,24.376,0,0,1,.313-4.973H.58a14.05,14.05,0,0,0,0,7.987h2.3a4.118,4.118,0,0,1,2.7-3.014Z" transform="translate(8 -164.9)"/></g><g class="f" transform="matrix(1, 0, 0, 1, -8, -8)"><path class="c" d="M326.541,14.35h.017a3.277,3.277,0,0,1,3.167,2.452h2.619a14.02,14.02,0,0,0-9.133-7.866,13.749,13.749,0,0,1,.907,1.045A16.685,16.685,0,0,1,326.541,14.35Z" transform="translate(-297.53 -0.45)"/></g><g class="e" transform="matrix(1, 0, 0, 1, -8, -8)"><path class="c" d="M271,0V8.355h3.033a3.284,3.284,0,0,1,1.557-2.026A13.568,13.568,0,0,0,271,0Z" transform="translate(-248.18 8)"/></g><g class="d" transform="matrix(1, 0, 0, 1, -8, -8)"><path class="c" d="M27.657,13.774a15.665,15.665,0,0,1,3.1-4.842A14.02,14.02,0,0,0,21.625,16.8H26.67A20.366,20.366,0,0,1,27.657,13.774Z" transform="translate(-12.44 -0.44)"/></g></g></g></svg>