<svg xmlns="http://www.w3.org/2000/svg" xmlns:xlink="http://www.w3.org/1999/xlink" width="44.001" height="44" viewBox="0 0 44.001 44" class="mdl-js"><defs><style>.a{fill:url(#a);}.b{opacity:0.4;mix-blend-mode:soft-light;isolation:isolate;fill:url(#b);}.c{fill:#fff;}.d{filter:url(#m);}.e{filter:url(#k);}.f{filter:url(#i);}.g{filter:url(#g);}.h{filter:url(#e);}.i{filter:url(#c);}</style><linearGradient id="a" y1="0.041" x2="1" y2="1" gradientUnits="objectBoundingBox"><stop offset="0" stop-color="#6ec2fb"/><stop offset="1" stop-color="#2489f4"/></linearGradient><linearGradient id="b" x1="0.287" x2="0.297" y2="1.017" gradientUnits="objectBoundingBox"><stop offset="0" stop-color="#fff" stop-opacity="0"/><stop offset="1" stop-color="#fff" stop-opacity="0.902"/></linearGradient><filter id="c" x="5" y="28.806" width="12.194" height="12.194" filterUnits="userSpaceOnUse"><feOffset dy="2" input="SourceAlpha"/><feGaussianBlur stdDeviation="1" result="d"/><feFlood flood-opacity="0.102"/><feComposite operator="in" in2="d"/><feComposite in="SourceGraphic"/></filter><filter id="e" x="7.088" y="16.415" width="22.493" height="22.493" filterUnits="userSpaceOnUse"><feOffset dy="2" input="SourceAlpha"/><feGaussianBlur stdDeviation="1" result="f"/><feFlood flood-opacity="0.102"/><feComposite operator="in" in2="f"/><feComposite in="SourceGraphic"/></filter><filter id="g" x="19.063" y="13.423" width="13.509" height="13.515" filterUnits="userSpaceOnUse"><feOffset dy="2" input="SourceAlpha"/><feGaussianBlur stdDeviation="1" result="h"/><feFlood flood-opacity="0.102"/><feComposite operator="in" in2="h"/><feComposite in="SourceGraphic"/></filter><filter id="i" x="11.206" y="10.21" width="17.078" height="15.451" filterUnits="userSpaceOnUse"><feOffset dy="2" input="SourceAlpha"/><feGaussianBlur stdDeviation="1" result="j"/><feFlood flood-opacity="0.102"/><feComposite operator="in" in2="j"/><feComposite in="SourceGraphic"/></filter><filter id="k" x="22.14" y="8.612" width="15.249" height="15.254" filterUnits="userSpaceOnUse"><feOffset dy="2" input="SourceAlpha"/><feGaussianBlur stdDeviation="1" result="l"/><feFlood flood-opacity="0.102"/><feComposite operator="in" in2="l"/><feComposite in="SourceGraphic"/></filter><filter id="m" x="28.301" y="7" width="10.699" height="10.699" filterUnits="userSpaceOnUse"><feOffset dy="2" input="SourceAlpha"/><feGaussianBlur stdDeviation="1" result="n"/><feFlood flood-opacity="0.102"/><feComposite operator="in" in2="n"/><feComposite in="SourceGraphic"/></filter></defs><g transform="translate(10167 18273)"><g transform="translate(-10167 -18273)"><rect class="a" width="44" height="44" rx="8"/></g><path class="b" d="M22,50.993V30a8,8,0,0,1,8-8H54.992c.005.209.008.421.008.631C55,38.3,40.547,51,22.717,51,22.477,51,22.238,51,22,50.993Z" transform="translate(-10100.999 -18207) rotate(180)"/><g transform="translate(-10159 -18265)"><g class="i" transform="matrix(1, 0, 0, 1, -8, -8)"><path class="c" d="M1.183,399.658.02,404.845a.827.827,0,0,0,.807,1.006c.06,0,5.367-1.182,5.367-1.182Z" transform="translate(8 -369.85)"/></g><g class="h" transform="matrix(1, 0, 0, 1, -8, -8)"><path class="c" d="M0,0H15.5V7.829H0Z" transform="translate(10.09 28.37) rotate(-45)"/></g><g class="g" transform="matrix(1, 0, 0, 1, -8, -8)"><path class="c" d="M263.436,125.3l1.974-1.974-5.53-5.541-1.979,1.979Z" transform="translate(-235.84 -103.37)"/></g><g class="f" transform="matrix(1, 0, 0, 1, -8, -8)"><path class="c" d="M123.015,58.273a.825.825,0,0,0-.9.179l-7.8,7.8a.827.827,0,0,0,1.169,1.169l7.212-7.211,1.285,1.287,1.169-1.169-1.869-1.872A.827.827,0,0,0,123.015,58.273Z" transform="translate(-99.87 -47)"/></g><g class="e" transform="matrix(1, 0, 0, 1, -8, -8)"><path class="c" d="M319.651,29.467a.827.827,0,0,0-1.169,0l-3.472,3.471,5.531,5.541L324.017,35a.826.826,0,0,0,0-1.169Z" transform="translate(-289.87 -19.61)"/></g><g class="d" transform="matrix(1, 0, 0, 1, -8, -8)"><path class="c" d="M431.221,2.75,428.713.242a.827.827,0,0,0-1.169,0l-.78.793L430.428,4.7l.793-.78a.827.827,0,0,0,0-1.169Z" transform="translate(-395.46 8)"/></g></g></g></svg>