<svg xmlns="http://www.w3.org/2000/svg" xmlns:xlink="http://www.w3.org/1999/xlink" width="44.001" height="44" viewBox="0 0 44.001 44" class="mdl-js"><defs><style>.a{fill:#cdcfd0;}.b{fill:url(#a);}.c{opacity:0.4;mix-blend-mode:soft-light;isolation:isolate;fill:url(#b);}.d{clip-path:url(#c);}.e,.f{fill:#fff;}.f{stroke:#fff;stroke-miterlimit:10;stroke-width:0.135px;}.g{filter:url(#al);}.h{filter:url(#aj);}.i{filter:url(#ah);}.j{filter:url(#af);}.k{filter:url(#ad);}.l{filter:url(#ab);}.m{filter:url(#z);}.n{filter:url(#x);}.o{filter:url(#v);}.p{filter:url(#t);}.q{filter:url(#r);}.r{filter:url(#p);}.s{filter:url(#n);}.t{filter:url(#l);}.u{filter:url(#j);}.v{filter:url(#h);}.w{filter:url(#f);}.x{filter:url(#d);}</style><linearGradient id="a" y1="0.041" x2="1" y2="1" gradientUnits="objectBoundingBox"><stop offset="0" stop-color="#ffc462"/><stop offset="1" stop-color="#f6a500"/></linearGradient><linearGradient id="b" x1="0.287" x2="0.297" y2="1.017" gradientUnits="objectBoundingBox"><stop offset="0" stop-color="#fff" stop-opacity="0"/><stop offset="1" stop-color="#fff" stop-opacity="0.902"/></linearGradient><clipPath id="c"><rect class="a" width="32" height="32" transform="translate(-9485 -18267)"/></clipPath><filter id="d" x="9.728" y="8.649" width="9.192" height="9.192" filterUnits="userSpaceOnUse"><feOffset dy="2" input="SourceAlpha"/><feGaussianBlur stdDeviation="1" result="e"/><feFlood flood-opacity="0.102"/><feComposite operator="in" in2="e"/><feComposite in="SourceGraphic"/></filter><filter id="f" x="13.61" y="10.97" width="7.269" height="7.269" filterUnits="userSpaceOnUse"><feOffset dy="2" input="SourceAlpha"/><feGaussianBlur stdDeviation="1" result="g"/><feFlood flood-opacity="0.102"/><feComposite operator="in" in2="g"/><feComposite in="SourceGraphic"/></filter><filter id="h" x="25.842" y="9.637" width="7.968" height="7.968" filterUnits="userSpaceOnUse"><feOffset dy="2" input="SourceAlpha"/><feGaussianBlur stdDeviation="1" result="i"/><feFlood flood-opacity="0.102"/><feComposite operator="in" in2="i"/><feComposite in="SourceGraphic"/></filter><filter id="j" x="21.622" y="28.561" width="8.102" height="8.102" filterUnits="userSpaceOnUse"><feOffset dy="2" input="SourceAlpha"/><feGaussianBlur stdDeviation="1" result="k"/><feFlood flood-opacity="0.102"/><feComposite operator="in" in2="k"/><feComposite in="SourceGraphic"/></filter><filter id="l" x="13.623" y="28.561" width="8.102" height="8.102" filterUnits="userSpaceOnUse"><feOffset dy="2" input="SourceAlpha"/><feGaussianBlur stdDeviation="1" result="m"/><feFlood flood-opacity="0.102"/><feComposite operator="in" in2="m"/><feComposite in="SourceGraphic"/></filter><filter id="n" x="16.39" y="28.784" width="10.567" height="10.567" filterUnits="userSpaceOnUse"><feOffset dy="2" input="SourceAlpha"/><feGaussianBlur stdDeviation="1" result="o"/><feFlood flood-opacity="0.102"/><feComposite operator="in" in2="o"/><feComposite in="SourceGraphic"/></filter><filter id="p" x="27.229" y="14.241" width="7.655" height="8.146" filterUnits="userSpaceOnUse"><feOffset dy="2" input="SourceAlpha"/><feGaussianBlur stdDeviation="1" result="q"/><feFlood flood-opacity="0.102"/><feComposite operator="in" in2="q"/><feComposite in="SourceGraphic"/></filter><filter id="r" x="22.667" y="13.016" width="13.642" height="10.597" filterUnits="userSpaceOnUse"><feOffset dy="2" input="SourceAlpha"/><feGaussianBlur stdDeviation="1" result="s"/><feFlood flood-opacity="0.102"/><feComposite operator="in" in2="s"/><feComposite in="SourceGraphic"/></filter><filter id="t" x="8.491" y="15.608" width="7.248" height="6.746" filterUnits="userSpaceOnUse"><feOffset dy="2" input="SourceAlpha"/><feGaussianBlur stdDeviation="1" result="u"/><feFlood flood-opacity="0.102"/><feComposite operator="in" in2="u"/><feComposite in="SourceGraphic"/></filter><filter id="v" x="12.152" y="14.524" width="6.995" height="7.109" filterUnits="userSpaceOnUse"><feOffset dy="2" input="SourceAlpha"/><feGaussianBlur stdDeviation="1" result="w"/><feFlood flood-opacity="0.102"/><feComposite operator="in" in2="w"/><feComposite in="SourceGraphic"/></filter><filter id="x" x="8.491" y="14.23" width="7.149" height="6.686" filterUnits="userSpaceOnUse"><feOffset dy="2" input="SourceAlpha"/><feGaussianBlur stdDeviation="1" result="y"/><feFlood flood-opacity="0.102"/><feComposite operator="in" in2="y"/><feComposite in="SourceGraphic"/></filter><filter id="z" x="7.139" y="12.893" width="20.672" height="10.843" filterUnits="userSpaceOnUse"><feOffset dy="2" input="SourceAlpha"/><feGaussianBlur stdDeviation="1" result="aa"/><feFlood flood-opacity="0.102"/><feComposite operator="in" in2="aa"/><feComposite in="SourceGraphic"/></filter><filter id="ab" x="3" y="20.354" width="10.832" height="11.911" filterUnits="userSpaceOnUse"><feOffset dy="2" input="SourceAlpha"/><feGaussianBlur stdDeviation="1" result="ac"/><feFlood flood-opacity="0.102"/><feComposite operator="in" in2="ac"/><feComposite in="SourceGraphic"/></filter><filter id="ad" x="7.984" y="20.354" width="10.985" height="11.911" filterUnits="userSpaceOnUse"><feOffset dy="2" input="SourceAlpha"/><feGaussianBlur stdDeviation="1" result="ae"/><feFlood flood-opacity="0.102"/><feComposite operator="in" in2="ae"/><feComposite in="SourceGraphic"/></filter><filter id="af" x="13.143" y="20.386" width="11.313" height="11.855" filterUnits="userSpaceOnUse"><feOffset dy="2" input="SourceAlpha"/><feGaussianBlur stdDeviation="1" result="ag"/><feFlood flood-opacity="0.102"/><feComposite operator="in" in2="ag"/><feComposite in="SourceGraphic"/></filter><filter id="ah" x="18.8" y="20.355" width="11.767" height="11.91" filterUnits="userSpaceOnUse"><feOffset dy="2" input="SourceAlpha"/><feGaussianBlur stdDeviation="1" result="ai"/><feFlood flood-opacity="0.102"/><feComposite operator="in" in2="ai"/><feComposite in="SourceGraphic"/></filter><filter id="aj" x="24.76" y="20.355" width="11.767" height="11.91" filterUnits="userSpaceOnUse"><feOffset dy="2" input="SourceAlpha"/><feGaussianBlur stdDeviation="1" result="ak"/><feFlood flood-opacity="0.102"/><feComposite operator="in" in2="ak"/><feComposite in="SourceGraphic"/></filter><filter id="al" x="30.862" y="20.386" width="10.138" height="11.807" filterUnits="userSpaceOnUse"><feOffset dy="2" input="SourceAlpha"/><feGaussianBlur stdDeviation="1" result="am"/><feFlood flood-opacity="0.102"/><feComposite operator="in" in2="am"/><feComposite in="SourceGraphic"/></filter></defs><g transform="translate(10167 18273)"><rect class="b" width="44" height="44" rx="8" transform="translate(-10167 -18273)"/><path class="c" d="M22,50.993V30a8,8,0,0,1,8-8H54.992c.005.209.008.421.008.631C55,38.3,40.547,51,22.717,51,22.477,51,22.238,51,22,50.993Z" transform="translate(-10100.999 -18207) rotate(180)"/><g transform="translate(-10167 -18273)"><g class="d" transform="translate(9491 18273)"><g transform="translate(-9485.076 -18267.076)"><g class="x" transform="matrix(1, 0, 0, 1, -5.92, -5.92)"><path class="e" d="M8.4,6.917l.665-.931L10,5.321l-.931-.665L8.4,3.725l-.665.931L6.8,5.321l.931.665Z" transform="translate(5.92 5.92)"/></g><g class="w" transform="matrix(1, 0, 0, 1, -5.92, -5.92)"><path class="e" d="M11.321,7.315l.265-.37.37-.265-.37-.265-.265-.37-.265.37-.37.265.37.265Z" transform="translate(5.92 5.92)"/></g><g class="v" transform="matrix(1, 0, 0, 1, -5.92, -5.92)"><path class="e" d="M23.9,6.681l.41-.574.574-.41-.574-.41-.41-.574-.41.574-.574.41.574.41Z" transform="translate(5.92 5.92)"/></g><g class="u" transform="matrix(1, 0, 0, 1, -5.92, -5.92)"><path class="e" d="M19.749,25.739l.438-.613.613-.438-.613-.438-.438-.613-.438.613-.613.438.613.438Z" transform="translate(5.92 5.92)"/></g><g class="t" transform="matrix(1, 0, 0, 1, -5.92, -5.92)"><path class="e" d="M11.751,25.739l.438-.613.613-.438-.613-.438-.438-.613-.438.613-.613.438.613.438Z" transform="translate(5.92 5.92)"/></g><g class="s" transform="matrix(1, 0, 0, 1, -5.92, -5.92)"><path class="e" d="M15.75,28.427l.951-1.332,1.332-.951L16.7,25.192,15.75,23.86,14.8,25.192l-1.332.951,1.332.951Z" transform="translate(5.92 5.92)"/></g><g class="r" transform="matrix(1, 0, 0, 1, -5.92, -5.92)"><path class="e" d="M25.133,9.318a.741.741,0,0,0-.608.27,1.25,1.25,0,0,0-.219.8,1.261,1.261,0,0,0,.219.8.814.814,0,0,0,1.217,0,1.262,1.262,0,0,0,.219-.8,1.24,1.24,0,0,0-.222-.8A.739.739,0,0,0,25.133,9.318Zm.186,1.535c-.023.029-.057.072-.186.072s-.165-.043-.188-.071a.757.757,0,0,1-.1-.466.746.746,0,0,1,.1-.461c.023-.028.057-.07.19-.07a.2.2,0,0,1,.188.074.73.73,0,0,1,.1.458A.752.752,0,0,1,25.319,10.853Z" transform="translate(5.92 5.92)"/></g><g class="q" transform="matrix(1, 0, 0, 1, -5.92, -5.92)"><path class="e" d="M27.117,9.207a1.985,1.985,0,0,0-.81-.833,2.586,2.586,0,0,0-2.347,0c-.063.035-.124.074-.182.115a.812.812,0,0,0-.131-.139,1.008,1.008,0,0,0-.665-.213H20.706a1,1,0,0,0-.665.213.854.854,0,0,0-.3.686.865.865,0,0,0,.292.684,1,1,0,0,0,.67.22h.147v1.753a.955.955,0,0,0,.289.708,1.049,1.049,0,0,0,1.4,0,.954.954,0,0,0,.289-.707V9.939h.076a2.907,2.907,0,0,0-.034.449,2.512,2.512,0,0,0,.272,1.184,2.015,2.015,0,0,0,.81.832,2.556,2.556,0,0,0,2.346,0,2.015,2.015,0,0,0,.81-.832,2.512,2.512,0,0,0,.272-1.184A2.544,2.544,0,0,0,27.117,9.207Zm-3.816.1a.479.479,0,0,1-.319.09H22.3v2.292a.422.422,0,0,1-.124.319.513.513,0,0,1-.657,0,.422.422,0,0,1-.124-.319V9.4H20.7a.479.479,0,0,1-.319-.09.343.343,0,0,1-.1-.275.335.335,0,0,1,.1-.272.49.49,0,0,1,.319-.088h2.277a.49.49,0,0,1,.319.088.335.335,0,0,1,.1.272A.341.341,0,0,1,23.3,9.31Zm3.336,2.009a1.475,1.475,0,0,1-.6.613,2.02,2.02,0,0,1-1.82,0,1.475,1.475,0,0,1-.6-.613,2.178,2.178,0,0,1,0-1.864,1.458,1.458,0,0,1,.6-.61,2.051,2.051,0,0,1,1.824,0,1.451,1.451,0,0,1,.594.61,2.193,2.193,0,0,1,0,1.864Z" transform="translate(5.92 5.92)"/></g><g class="p" transform="matrix(1, 0, 0, 1, -5.92, -5.92)"><path class="e" d="M6.7,10.771a.673.673,0,0,0-.391-.087H5.568v.746h.741a.668.668,0,0,0,.391-.087.409.409,0,0,0,0-.572Z" transform="translate(5.92 5.92)"/></g><g class="o" transform="matrix(1, 0, 0, 1, -5.92, -5.92)"><path class="e" d="M9.228,10.709h.995L9.725,9.6Z" transform="translate(5.92 5.92)"/></g><g class="n" transform="matrix(1, 0, 0, 1, -5.92, -5.92)"><path class="e" d="M6.6,9.913a.283.283,0,0,0,.119-.254A.307.307,0,0,0,6.6,9.391a.663.663,0,0,0-.378-.085H5.568v.686h.651A.693.693,0,0,0,6.6,9.913Z" transform="translate(5.92 5.92)"/></g><g class="m" transform="matrix(1, 0, 0, 1, -5.92, -5.92)"><path class="e" d="M18.568,10.972l-.62-.637.531-.52a1.052,1.052,0,0,0,.34-.769A1.032,1.032,0,0,0,18.5,8.3a1.044,1.044,0,0,0-1.5.021l-.327.329a1.033,1.033,0,0,0-.236-.35,1.1,1.1,0,0,0-.792-.307,1.086,1.086,0,0,0-.79.312l-.017.018a2.529,2.529,0,0,0-1.316-.35,2.492,2.492,0,0,0-1.223.3,2.136,2.136,0,0,0-.863.882,2.4,2.4,0,0,0-.147.343l-.42-.863a1.11,1.11,0,0,0-.461-.489,1.225,1.225,0,0,0-1.194,0,1.115,1.115,0,0,0-.455.488l-.35.72H8.359a1.407,1.407,0,0,0-.566-.96,2.038,2.038,0,0,0-1.258-.375H5.287A1.027,1.027,0,0,0,4.215,9.086V11.7a1.028,1.028,0,0,0,1.072,1.072h1.3a2.3,2.3,0,0,0,.9-.17,1.907,1.907,0,0,0,.214-.108l.029.026a1.111,1.111,0,0,0,.722.265,1.039,1.039,0,0,0,.954-.617l.05-.11h.731l.045.1v.006a1.032,1.032,0,0,0,.949.618,1.1,1.1,0,0,0,.726-.273,1.032,1.032,0,0,0,.143-.152,2.168,2.168,0,0,0,.243.158,2.49,2.49,0,0,0,1.223.3,2.53,2.53,0,0,0,1.313-.348l.02.021a1.082,1.082,0,0,0,.789.312,1.1,1.1,0,0,0,.792-.307,1.047,1.047,0,0,0,.254-.4l.327.335a1.1,1.1,0,0,0,.8.355,1.074,1.074,0,0,0,1.067-1.063A1.028,1.028,0,0,0,18.568,10.972Zm-11.054.694A.981.981,0,0,1,7.082,12a1.679,1.679,0,0,1-.659.119H5.1a.382.382,0,0,1-.423-.423V9.038A.382.382,0,0,1,5.1,8.615H6.373a1.421,1.421,0,0,1,.877.246.789.789,0,0,1,.326.664A.81.81,0,0,1,7.433,10a.821.821,0,0,1-.4.3.841.841,0,0,1,.637.86A.855.855,0,0,1,7.515,11.666Zm3.9.356a.447.447,0,0,1-.3.115.383.383,0,0,1-.209-.06.4.4,0,0,1-.149-.179l-.224-.5H8.919l-.229.5a.4.4,0,0,1-.152.179.4.4,0,0,1-.211.06.461.461,0,0,1-.306-.115.352.352,0,0,1-.137-.279.424.424,0,0,1,.045-.184l1.313-2.7a.46.46,0,0,1,.192-.206.559.559,0,0,1,.281-.072.565.565,0,0,1,.279.072.458.458,0,0,1,.194.206l1.313,2.7a.424.424,0,0,1,.045.184A.359.359,0,0,1,11.413,12.022ZM14.464,9.58a.385.385,0,0,1-.134-.022.77.77,0,0,1-.139-.072,1.416,1.416,0,0,0-.328-.149,1.124,1.124,0,0,0-.318-.045.8.8,0,0,0-.659.266,1.266,1.266,0,0,0-.216.808,1.273,1.273,0,0,0,.216.813.8.8,0,0,0,.659.266.877.877,0,0,0,.288-.047q.139-.047.358-.147a1.71,1.71,0,0,1,.154-.074.318.318,0,0,1,.119-.02.265.265,0,0,1,.211.107.4.4,0,0,1,.087.261.339.339,0,0,1-.159.309,2.029,2.029,0,0,1-2.031.114,1.506,1.506,0,0,1-.612-.626,2.2,2.2,0,0,1,0-1.9,1.51,1.51,0,0,1,.612-.626A2.029,2.029,0,0,1,14.6,8.9a.383.383,0,0,1,.122.129.378.378,0,0,1,.037.179.4.4,0,0,1-.087.261A.263.263,0,0,1,14.464,9.58Zm.079.692v.237c-.023,0-.046,0-.069,0a.963.963,0,0,0-.361.067c-.052.021-.114.051-.2.092-.143.065-.228.1-.274.113a.224.224,0,0,1-.072.012.338.338,0,0,1-.137-.019.724.724,0,0,1-.064-.382.713.713,0,0,1,.064-.377.335.335,0,0,1,.137-.019.447.447,0,0,1,.129.018.707.707,0,0,1,.163.076,1.388,1.388,0,0,0,.249.125,1.033,1.033,0,0,0,.363.064Zm3.626,1.74a.4.4,0,0,1-.293.124.464.464,0,0,1-.338-.159L16.12,10.525V11.7a.442.442,0,0,1-.124.33.461.461,0,0,1-.338.122.42.42,0,0,1-.452-.452V9.038a.441.441,0,0,1,.122-.326.446.446,0,0,1,.33-.122A.462.462,0,0,1,16,8.712a.436.436,0,0,1,.124.326v1.094l1.4-1.407a.394.394,0,0,1,.582-.013A.389.389,0,0,1,18.223,9a.417.417,0,0,1-.144.3l-1.02,1,1.1,1.134a.389.389,0,0,1,.129.288A.4.4,0,0,1,18.169,12.012Z" transform="translate(5.92 5.92)"/></g><g class="l" transform="matrix(1, 0, 0, 1, -5.92, -5.92)"><path class="f" d="M1.3,21.134a2.71,2.71,0,0,1-.9-.387.7.7,0,0,1-.2-.216.608.608,0,0,1-.06-.288.639.639,0,0,1,.143-.416.424.424,0,0,1,.336-.175.634.634,0,0,1,.2.032,1.23,1.23,0,0,1,.24.12,2.617,2.617,0,0,0,.651.264,3.061,3.061,0,0,0,.731.08,1.465,1.465,0,0,0,.715-.14A.446.446,0,0,0,3.4,19.6a.377.377,0,0,0-.227-.316,3.191,3.191,0,0,0-.867-.259,5.021,5.021,0,0,1-1.238-.4,1.466,1.466,0,0,1-.627-.547,1.517,1.517,0,0,1-.18-.763,1.535,1.535,0,0,1,.3-.927,2.028,2.028,0,0,1,.835-.651A2.917,2.917,0,0,1,2.6,15.5a3.848,3.848,0,0,1,1.038.128,2.6,2.6,0,0,1,.831.4.647.647,0,0,1,.2.22.615.615,0,0,1,.06.284.65.65,0,0,1-.14.416.414.414,0,0,1-.332.175.61.61,0,0,1-.192-.028,1.333,1.333,0,0,1-.248-.124c-.027-.016-.1-.057-.227-.124a1.827,1.827,0,0,0-.439-.159,2.373,2.373,0,0,0-.547-.06,1.219,1.219,0,0,0-.655.156.469.469,0,0,0-.248.411.354.354,0,0,0,.088.248.878.878,0,0,0,.327.188,4.753,4.753,0,0,0,.711.188,4.781,4.781,0,0,1,1.206.4,1.545,1.545,0,0,1,.623.547,1.422,1.422,0,0,1,.184.735,1.535,1.535,0,0,1-.3.931,1.893,1.893,0,0,1-.827.623,3.207,3.207,0,0,1-1.234.22A4.825,4.825,0,0,1,1.3,21.134Z" transform="translate(5.92 5.92)"/></g><g class="k" transform="matrix(1, 0, 0, 1, -5.92, -5.92)"><path class="f" d="M6.458,20.922a2.424,2.424,0,0,1-.982-1.006,3.538,3.538,0,0,1,0-3.06,2.416,2.416,0,0,1,.982-1.006A3.01,3.01,0,0,1,7.941,15.5a3.034,3.034,0,0,1,1.781.535.631.631,0,0,1,.2.208.61.61,0,0,1,.06.288.645.645,0,0,1-.14.42.423.423,0,0,1-.339.172.618.618,0,0,1-.216-.036,1.278,1.278,0,0,1-.224-.116,2.268,2.268,0,0,0-.527-.24,1.821,1.821,0,0,0-.511-.072,1.286,1.286,0,0,0-1.059.427,2.031,2.031,0,0,0-.348,1.3,2.043,2.043,0,0,0,.348,1.306,1.283,1.283,0,0,0,1.059.427,1.413,1.413,0,0,0,.463-.076q.224-.076.575-.236c.112-.058.194-.1.248-.12a.519.519,0,0,1,.192-.032.422.422,0,0,1,.339.172.645.645,0,0,1,.14.42.607.607,0,0,1-.06.284.594.594,0,0,1-.2.211,3.034,3.034,0,0,1-1.781.535A3.01,3.01,0,0,1,6.458,20.922Z" transform="translate(5.92 5.92)"/></g><g class="j" transform="matrix(1, 0, 0, 1, -5.92, -5.92)"><path class="f" d="M15.269,15.725a.707.707,0,0,1,.2.523v4.274a.72.72,0,0,1-.2.527.7.7,0,0,1-.523.2.707.707,0,0,1-.523-.2.717.717,0,0,1-.2-.531v-1.6h-2.3v1.6a.72.72,0,0,1-.2.527.7.7,0,0,1-.523.2.707.707,0,0,1-.523-.2.717.717,0,0,1-.2-.531V16.249a.72.72,0,1,1,1.438,0v1.51h2.3v-1.51a.741.741,0,0,1,1.243-.523Z" transform="translate(5.92 5.92)"/></g><g class="i" transform="matrix(1, 0, 0, 1, -5.92, -5.92)"><path class="f" d="M17.266,20.918a2.429,2.429,0,0,1-.979-1.006,3.579,3.579,0,0,1,0-3.059,2.4,2.4,0,0,1,.979-1,3.366,3.366,0,0,1,3,0,2.381,2.381,0,0,1,.975,1,3.268,3.268,0,0,1,.339,1.529,3.234,3.234,0,0,1-.343,1.529,2.422,2.422,0,0,1-.979,1.006,3.317,3.317,0,0,1-2.988,0Zm2.5-1.222a2.073,2.073,0,0,0,.359-1.314,2.037,2.037,0,0,0-.363-1.31,1.338,1.338,0,0,0-1.993,0,2.052,2.052,0,0,0-.359,1.314,2.07,2.07,0,0,0,.359,1.318,1.333,1.333,0,0,0,2,0Z" transform="translate(5.92 5.92)"/></g><g class="h" transform="matrix(1, 0, 0, 1, -5.92, -5.92)"><path class="f" d="M23.225,20.918a2.429,2.429,0,0,1-.979-1.006,3.579,3.579,0,0,1,0-3.059,2.4,2.4,0,0,1,.979-1,3.366,3.366,0,0,1,3,0,2.381,2.381,0,0,1,.975,1,3.268,3.268,0,0,1,.339,1.529,3.234,3.234,0,0,1-.343,1.529,2.422,2.422,0,0,1-.979,1.006,3.317,3.317,0,0,1-2.988,0Zm2.5-1.222a2.073,2.073,0,0,0,.359-1.314,2.037,2.037,0,0,0-.363-1.31,1.338,1.338,0,0,0-1.993,0,2.052,2.052,0,0,0-.359,1.314,2.07,2.07,0,0,0,.359,1.318,1.333,1.333,0,0,0,2,0Z" transform="translate(5.92 5.92)"/></g><g class="g" transform="matrix(1, 0, 0, 1, -5.92, -5.92)"><path class="f" d="M28.181,21.026a.692.692,0,0,1-.175-.511V16.249a.707.707,0,0,1,.2-.523.717.717,0,0,1,.531-.2.742.742,0,0,1,.543.2.7.7,0,0,1,.2.523v3.762h1.838q.695,0,.695.6a.549.549,0,0,1-.172.447.8.8,0,0,1-.523.144H28.685A.682.682,0,0,1,28.181,21.026Z" transform="translate(5.92 5.92)"/></g></g></g></g></g></svg>