<svg xmlns="http://www.w3.org/2000/svg" xmlns:xlink="http://www.w3.org/1999/xlink" width="44.001" height="44" viewBox="0 0 44.001 44" class="mdl-js"><defs><style>.a{fill:url(#a);}.b{opacity:0.4;mix-blend-mode:soft-light;isolation:isolate;fill:url(#b);}.c{fill:#fff;}.d{filter:url(#e);}.e{filter:url(#c);}</style><linearGradient id="a" y1="0.041" x2="1" y2="1" gradientUnits="objectBoundingBox"><stop offset="0" stop-color="#4cd471"/><stop offset="1" stop-color="#00a86b"/></linearGradient><linearGradient id="b" x1="0.287" x2="0.297" y2="1.017" gradientUnits="objectBoundingBox"><stop offset="0" stop-color="#fff" stop-opacity="0"/><stop offset="1" stop-color="#fff" stop-opacity="0.902"/></linearGradient><filter id="c" x="14.699" y="16.427" width="14.601" height="14.602" filterUnits="userSpaceOnUse"><feOffset dy="2" input="SourceAlpha"/><feGaussianBlur stdDeviation="1" result="d"/><feFlood flood-opacity="0.102"/><feComposite operator="in" in2="d"/><feComposite in="SourceGraphic"/></filter><filter id="e" x="7" y="7" width="30" height="34" filterUnits="userSpaceOnUse"><feOffset dy="2" input="SourceAlpha"/><feGaussianBlur stdDeviation="1" result="f"/><feFlood flood-opacity="0.102"/><feComposite operator="in" in2="f"/><feComposite in="SourceGraphic"/></filter></defs><g transform="translate(10167 18273)"><g transform="translate(-10167 -18273)"><rect class="a" width="44" height="44" rx="8"/></g><path class="b" d="M22,50.993V30a8,8,0,0,1,8-8H54.992c.005.209.008.421.008.631C55,38.3,40.547,51,22.717,51,22.477,51,22.238,51,22,50.993Z" transform="translate(-10100.999 -18207) rotate(180)"/><g transform="translate(-10195.537 -18265)"><g class="e" transform="matrix(1, 0, 0, 1, 28.54, -8)"><path class="c" d="M183.778,176.323h2.654v1.643h-2.654a.825.825,0,0,0-.825.825v2.655h-1.643V178.79a.825.825,0,0,0-.825-.825h-2.655v-1.643h2.655a.825.825,0,0,0,.825-.825v-2.655h1.643V175.5A.825.825,0,0,0,183.778,176.323Z" transform="translate(-160.13 -155.42)"/></g><g class="d" transform="matrix(1, 0, 0, 1, 28.54, -8)"><path class="c" d="M62.509,7.595V7.568c-.013-.7-.026-1.357-.026-1.991a1.752,1.752,0,0,0-1.758-1.743A12.115,12.115,0,0,1,51.763.5a1.761,1.761,0,0,0-2.452,0,12.113,12.113,0,0,1-8.96,3.337,1.752,1.752,0,0,0-1.758,1.743c0,.647-.013,1.313-.026,2.019-.063,3.292-.142,7.388,1.245,11.107a14.109,14.109,0,0,0,3.433,5.282,17.973,17.973,0,0,0,6.717,3.92,1.772,1.772,0,0,0,1.152,0,17.975,17.975,0,0,0,6.718-3.92A14.113,14.113,0,0,0,61.263,18.7c1.388-3.719,1.309-7.816,1.245-11.108Zm-6,7.77a.824.824,0,0,1-.828.82H53.017v2.639a.824.824,0,0,1-.828.82h-3.3a.824.824,0,0,1-.828-.82V16.185H45.395a.824.824,0,0,1-.828-.82V12.091a.824.824,0,0,1,.828-.82h2.663V8.631a.824.824,0,0,1,.828-.82h3.3a.824.824,0,0,1,.828.82v2.639h2.663a.824.824,0,0,1,.828.82Z" transform="translate(-28.54 8)"/></g></g></g></svg>