<svg xmlns="http://www.w3.org/2000/svg" xmlns:xlink="http://www.w3.org/1999/xlink" width="44.001" height="44" viewBox="0 0 44.001 44" class="mdl-js"><defs><style>.a{fill:url(#a);}.b{fill:#fff;}.c{opacity:0.4;mix-blend-mode:soft-light;isolation:isolate;fill:url(#n);}.d{filter:url(#l);}.e{filter:url(#j);}.f{filter:url(#h);}.g{filter:url(#f);}.h{filter:url(#d);}.i{filter:url(#b);}</style><linearGradient id="a" y1="0.041" x2="1" y2="1" gradientUnits="objectBoundingBox"><stop offset="0" stop-color="#ffc462"/><stop offset="1" stop-color="#f6a500"/></linearGradient><filter id="b" x="22.392" y="26.91" width="13.562" height="15.521" filterUnits="userSpaceOnUse"><feOffset dy="2" input="SourceAlpha"/><feGaussianBlur stdDeviation="1" result="c"/><feFlood flood-opacity="0.102"/><feComposite operator="in" in2="c"/><feComposite in="SourceGraphic"/></filter><filter id="d" x="8.042" y="26.909" width="13.565" height="15.521" filterUnits="userSpaceOnUse"><feOffset dy="2" input="SourceAlpha"/><feGaussianBlur stdDeviation="1" result="e"/><feFlood flood-opacity="0.102"/><feComposite operator="in" in2="e"/><feComposite in="SourceGraphic"/></filter><filter id="f" x="22.025" y="5.571" width="13.479" height="12.573" filterUnits="userSpaceOnUse"><feOffset dy="2" input="SourceAlpha"/><feGaussianBlur stdDeviation="1" result="g"/><feFlood flood-opacity="0.102"/><feComposite operator="in" in2="g"/><feComposite in="SourceGraphic"/></filter><filter id="h" x="5" y="21.645" width="34" height="20.248" filterUnits="userSpaceOnUse"><feOffset dy="2" input="SourceAlpha"/><feGaussianBlur stdDeviation="1" result="i"/><feFlood flood-opacity="0.102"/><feComposite operator="in" in2="i"/><feComposite in="SourceGraphic"/></filter><filter id="j" x="8.495" y="5.57" width="13.479" height="12.572" filterUnits="userSpaceOnUse"><feOffset dy="2" input="SourceAlpha"/><feGaussianBlur stdDeviation="1" result="k"/><feFlood flood-opacity="0.102"/><feComposite operator="in" in2="k"/><feComposite in="SourceGraphic"/></filter><filter id="l" x="9.701" y="8.523" width="24.597" height="21.313" filterUnits="userSpaceOnUse"><feOffset dy="2" input="SourceAlpha"/><feGaussianBlur stdDeviation="1" result="m"/><feFlood flood-opacity="0.102"/><feComposite operator="in" in2="m"/><feComposite in="SourceGraphic"/></filter><linearGradient id="n" x1="0.287" x2="0.297" y2="1.017" gradientUnits="objectBoundingBox"><stop offset="0" stop-color="#fff" stop-opacity="0"/><stop offset="1" stop-color="#fff" stop-opacity="0.902"/></linearGradient></defs><g transform="translate(10167 18273)"><g transform="translate(-10167 -18273)"><rect class="a" width="44" height="44" rx="8"/><g transform="translate(-14.964 6.569)"><g class="i" transform="matrix(1, 0, 0, 1, 14.96, -6.57)"><path class="b" d="M318.036,362.985a5.827,5.827,0,0,0,1.9-7.306,3.141,3.141,0,0,0-5.009-.8c-2.2,1.865-2.664,5.784-.779,7.7A3.047,3.047,0,0,0,318.036,362.985Z" transform="translate(-287.58 -326.07)"/></g><g class="h" transform="matrix(1, 0, 0, 1, 14.96, -6.57)"><path class="b" d="M79.049,354.875a3.151,3.151,0,0,0-5.118,1.008c-1.5,3.066.632,7.611,3.762,7.611a2.967,2.967,0,0,0,2.135-.92C81.708,360.664,81.253,356.743,79.049,354.875Z" transform="translate(-62.4 -326.06)"/></g><g class="g" transform="matrix(1, 0, 0, 1, 14.96, -6.57)"><path class="b" d="M313.748,6.573a4.327,4.327,0,0,0-.618-5.281,4.206,4.206,0,0,0-6.233.185A10.085,10.085,0,0,1,313.748,6.573Z" transform="translate(-281.87 6.57)"/></g><g class="f" transform="matrix(1, 0, 0, 1, 14.96, -6.57)"><path class="b" d="M49.058,267.758l-2.67-1.1c-4.31,5.326-14.535,5.33-18.849,0l-2.67,1.1a3.082,3.082,0,0,0-.158,5.626,4.948,4.948,0,0,1,8.041-1.936,7.685,7.685,0,0,1,1.656,9.37,35.611,35.611,0,0,0,5.109,0,7.686,7.686,0,0,1,1.656-9.37,4.949,4.949,0,0,1,8.041,1.936,3.082,3.082,0,0,0-.158-5.626Z" transform="translate(-14.96 -244.02)"/></g><g class="e" transform="matrix(1, 0, 0, 1, 14.96, -6.57)"><path class="b" d="M88.431,1.481A4.207,4.207,0,0,0,82.2,1.3a4.328,4.328,0,0,0-.618,5.281,10.081,10.081,0,0,1,6.85-5.1Z" transform="translate(-69.46 6.57)"/></g><g class="d" transform="matrix(1, 0, 0, 1, 14.96, -6.57)"><path class="b" d="M117.43,51.873a10.4,10.4,0,0,0-14.358,0,8.546,8.546,0,0,0-2.119,5.625,6.05,6.05,0,0,0,2.844,4.918,11.941,11.941,0,0,0,12.909,0A6.05,6.05,0,0,0,119.55,57.5,8.545,8.545,0,0,0,117.43,51.873Zm-9.163,2.941a.9.9,0,1,1-.72-.976A.9.9,0,0,1,108.268,54.814Zm3.58,3.444-.96.965a.9.9,0,0,1-1.273,0l-.96-.965a.906.906,0,0,1,.636-1.544h1.92A.906.906,0,0,1,111.848,58.258Zm2.179-3.444a.9.9,0,1,1-.72-.976A.9.9,0,0,1,114.027,54.814Z" transform="translate(-88.25 -39.47)"/></g></g></g><path class="c" d="M22,50.993V30a8,8,0,0,1,8-8H54.992c.005.209.008.421.008.631C55,38.3,40.547,51,22.717,51,22.477,51,22.238,51,22,50.993Z" transform="translate(-10100.999 -18207) rotate(180)"/></g></svg>