<svg xmlns="http://www.w3.org/2000/svg" width="30.813" height="36" viewBox="0 0 30.813 36" class="mdl-js">
  <g id="ico_thongtintk" transform="translate(-17.428 -11.844)">
    <path id="Path_182" data-name="Path 182" d="M32.673,31.132a1.062,1.062,0,0,0,.117,0h.045l.072,0a6.644,6.644,0,0,0,5.078-2.194c2.788-3.14,2.319-8.533,2.269-9.034-.18-3.742-1.91-5.576-3.331-6.456a7.81,7.81,0,0,0-3.972-1.105l-.16,0-.16,0a7.809,7.809,0,0,0-3.972,1.105c-1.421.879-3.151,2.713-3.331,6.456-.051.5-.519,5.894,2.269,9.034A6.645,6.645,0,0,0,32.673,31.132ZM27.137,20.071c0-.019,0-.038,0-.057.249-5.43,4.263-5.852,5.488-5.852.055,0,.1,0,.125,0h.072c.027,0,.069,0,.125,0,1.224,0,5.238.422,5.488,5.852,0,.018,0,.038,0,.056.006.05.508,5.047-1.821,7.665a4.852,4.852,0,0,1-3.8,1.579h-.071a4.854,4.854,0,0,1-3.8-1.579C26.63,25.117,27.132,20.12,27.137,20.071ZM47.724,40.183a11.121,11.121,0,0,1-.368,3.267.907.907,0,0,1-.349.427c-.218.142-5.435,3.467-14.159,3.467h-.012c-8.725,0-13.941-3.326-14.159-3.467a.907.907,0,0,1-.349-.427,10.955,10.955,0,0,1-.369-3.228c-.22-3.274.99-5.491,3.322-6.084a20.919,20.919,0,0,0,6.06-2.761.909.909,0,0,1,1.047,1.487A22.5,22.5,0,0,1,21.728,35.9c-1.924.489-2.049,2.862-1.953,4.232,0,.026,0,.051,0,.077a12.575,12.575,0,0,0,.164,2.3,27.006,27.006,0,0,0,12.894,3.012h.012a26.851,26.851,0,0,0,12.894-3.011,12.251,12.251,0,0,0,.165-2.165.873.873,0,0,1-.012-.215c.1-1.371-.028-3.745-1.953-4.235a22.5,22.5,0,0,1-6.658-3.037.909.909,0,1,1,1.047-1.487,21.02,21.02,0,0,0,6.06,2.761c2.305.586,3.513,2.757,3.329,5.968A.717.717,0,0,1,47.724,40.183Z" transform="translate(0 0)" fill="#fff" stroke="#fff" stroke-width="1"/>
  </g>
</svg>