<svg xmlns="http://www.w3.org/2000/svg" width="16" height="16" viewBox="0 0 16 16" class="mdl-js"><defs><style>.a,.b{fill:none;}.b{stroke:#0d0e0f;stroke-linecap:round;stroke-linejoin:round;stroke-width:1.5px;}</style></defs><path class="a" d="M0,0H16V16H0Z"/><path class="b" d="M8,4.334a1.333,1.333,0,1,1,2.666,0,4.669,4.669,0,0,1,2.666,4v2a2.668,2.668,0,0,0,1.333,2H4a2.668,2.668,0,0,0,1.333-2v-2A4.669,4.669,0,0,1,8,4.334" transform="translate(-1.332 -0.999)"/><path class="b" d="M9,17v.667a2,2,0,0,0,4,0V17" transform="translate(-3.001 -5.669)"/></svg>