<svg xmlns="http://www.w3.org/2000/svg" width="37" height="24" viewBox="0 0 37 24" class="mdl-js"><defs><style>.a{fill:#41479b;}.b{fill:#f5f5f5;}.c{fill:#ff4b55;}</style></defs><g transform="translate(0 -88.276)"><path class="a" d="M36.362,112.276H.638A.635.635,0,0,1,0,111.644V88.908a.635.635,0,0,1,.638-.632H36.362a.635.635,0,0,1,.638.632v22.737A.635.635,0,0,1,36.362,112.276Z" transform="translate(0 0)"/><path class="b" d="M37,88.908a.635.635,0,0,0-.638-.632H33.508L21.69,95.942V88.276H15.31v7.666L3.492,88.276H.638A.635.635,0,0,0,0,88.908v1.633l10.139,6.577H0v6.316H10.139L0,110.011v1.633a.635.635,0,0,0,.638.632H3.492L15.31,104.61v7.666H21.69V104.61l11.818,7.666h2.854a.635.635,0,0,0,.638-.632v-1.633l-10.139-6.577H37V97.118H26.86L37,90.541Z" transform="translate(0 0)"/><g transform="translate(0 88.276)"><path class="c" d="M37,98.381H20.414V88.276H16.586V98.381H0v3.789H16.586v10.105h3.828V102.171H37Z" transform="translate(0 -88.276)"/><path class="c" d="M13.164,300.138.25,308.437a.628.628,0,0,0,.62.543h.879l13.759-8.842H13.164Z" transform="translate(-0.232 -284.98)"/><path class="c" d="M316.3,300.138H313.96l13.739,8.829a.628.628,0,0,0,.573-.619v-.519Z" transform="translate(-291.272 -284.98)"/><path class="c" d="M0,90.4l11.691,7.513h2.343L.372,89.137a.629.629,0,0,0-.372.57Z" transform="translate(0 -89.075)"/><path class="c" d="M302.481,97.119,315.426,88.8a.627.627,0,0,0-.616-.523H313.9l-13.758,8.842Z" transform="translate(-278.448 -88.277)"/></g></g></svg>